<svg width="34" height="34" viewBox="0 0 34 34" fill="none" xmlns="http://www.w3.org/2000/svg">
<path d="M12.7493 12.0852V10.3852C12.7493 7.95755 14.6448 5.97705 16.9993 5.97705C19.3538 5.97705 21.2493 7.95755 21.2493 10.3852V12.0852H24.1869C24.3215 12.0852 24.451 12.1363 24.5494 12.2281C24.6478 12.3199 24.7078 12.4456 24.7173 12.5799L25.7271 27.4549C25.736 27.5954 25.689 27.7337 25.5963 27.8398C25.5036 27.9458 25.3728 28.0109 25.2324 28.021H8.80188C8.66121 28.021 8.5263 27.9651 8.42683 27.8656C8.32737 27.7661 8.27148 27.6312 8.27148 27.4906V27.4549L9.28128 12.5799C9.29033 12.4453 9.35013 12.3192 9.44859 12.2271C9.54705 12.1349 9.67683 12.0836 9.81168 12.0835L12.7493 12.0852ZM14.3439 12.0852H19.6564V10.3852C19.6564 8.82285 18.4664 7.56995 16.9993 7.56995C15.5322 7.56995 14.3439 8.82285 14.3439 10.3852V12.0852ZM9.93918 26.4298H24.0594L23.1958 13.6798H10.8045L9.93918 26.4298Z" fill="#212121"/>
</svg>
