<svg width="18" height="24" viewBox="0 0 18 24" fill="none" xmlns="http://www.w3.org/2000/svg">
<path d="M4.74977 7.08515V5.38515C4.74977 2.95755 6.64527 0.977051 8.99977 0.977051C11.3543 0.977051 13.2498 2.95755 13.2498 5.38515V7.08515H16.1874C16.322 7.08525 16.4515 7.13634 16.5499 7.22813C16.6483 7.31992 16.7083 7.4456 16.7178 7.57985L17.7276 22.4549C17.7365 22.5954 17.6894 22.7337 17.5968 22.8398C17.5041 22.9458 17.3733 23.0109 17.2329 23.021H0.802372C0.661702 23.021 0.526792 22.9651 0.427323 22.8656C0.327854 22.7661 0.271973 22.6312 0.271973 22.4906V22.4549L1.28177 7.57985C1.29082 7.4453 1.35062 7.3192 1.44908 7.22705C1.54754 7.1349 1.67732 7.08358 1.81217 7.08345L4.74977 7.08515ZM6.34437 7.08515H11.6569V5.38515C11.6569 3.82285 10.4669 2.56995 8.99977 2.56995C7.53267 2.56995 6.34437 3.82285 6.34437 5.38515V7.08515ZM1.93967 21.4298H16.0599L15.1963 8.67975H2.80497L1.93967 21.4298Z" fill="#212121"/>
</svg>
