<svg width="15" height="16" viewBox="0 0 15 16" fill="none" xmlns="http://www.w3.org/2000/svg">
<path fill-rule="evenodd" clip-rule="evenodd" d="M8.51463 6.54528C9.35697 5.46094 10.3097 4.91096 11.5143 4.97735C13.474 5.08519 14.8533 6.61259 14.9524 8.99709C15.0395 11.0973 14.9777 13.2048 14.9911 15.3087C14.9944 15.8136 14.7832 16.0022 14.3504 15.99C13.7707 15.9736 13.1889 15.9587 12.6106 15.9964C12.0368 16.034 11.8186 15.7762 11.8285 15.1382C11.8511 13.7098 11.8371 12.2804 11.8347 10.8516C11.8338 10.4622 11.8382 10.0709 11.811 9.68338C11.7272 8.48385 11.0985 7.7599 10.1664 7.76804C9.20838 7.7763 8.4333 8.63827 8.41643 9.78506C8.3917 11.4733 8.40658 13.1622 8.40342 14.8508C8.40119 15.9815 8.40037 15.9815 7.40323 15.9888C5.24699 16.0043 5.24781 16.0043 5.24698 13.5898C5.24616 11.1218 5.26222 8.65322 5.23011 6.1858C5.22085 5.47131 5.43425 5.18516 6.07058 5.25194C6.43854 5.29065 6.81249 5.25627 7.18397 5.25798C8.29233 5.26349 8.29233 5.26415 8.51463 6.54528ZM0.225164 10.5785C0.225164 9.09837 0.249422 7.61756 0.2145 6.13857C0.198445 5.4469 0.434343 5.20747 1.02989 5.24853C1.60762 5.28815 2.18957 5.27084 2.76895 5.25706C3.20418 5.24696 3.40094 5.44533 3.39929 5.94847C3.38898 9.06453 3.38758 12.1802 3.39297 15.2962C3.39379 15.7951 3.20113 16.0006 2.76297 15.9903C2.13707 15.9753 1.51 15.9698 0.884576 15.993C0.40446 16.011 0.224109 15.7813 0.229265 15.2523C0.2445 13.6945 0.234656 12.1362 0.234656 10.5784C0.231726 10.5785 0.228445 10.5785 0.225164 10.5785ZM1.77918 3.71235C0.761061 3.70749 0.0069613 2.92254 4.72609e-05 1.86037C-0.00698397 0.816307 0.771373 0.000787609 1.77508 4.27923e-07C2.86727 -0.000655557 3.60695 0.752939 3.60261 1.86168C3.59793 2.99077 2.88191 3.7172 1.77918 3.71235Z" fill="#5C755E"/>
</svg>
