<svg width="22" height="23" viewBox="0 0 22 23" fill="none" xmlns="http://www.w3.org/2000/svg">
<path d="M17.3793 11.6219C17.1826 11.6219 16.977 11.5593 16.7803 11.5146C16.382 11.4269 15.9906 11.3103 15.6092 11.166C15.1944 11.0151 14.7385 11.0229 14.3292 11.188C13.9199 11.353 13.5861 11.6636 13.392 12.06L13.1953 12.4623C12.3246 11.9779 11.5244 11.3763 10.8173 10.6743C10.1153 9.9671 9.51363 9.16694 9.02923 8.29618L9.40472 8.04586C9.80109 7.85178 10.1117 7.51797 10.2767 7.10865C10.4418 6.69934 10.4496 6.24345 10.2987 5.8287C10.1568 5.44644 10.0403 5.0552 9.95006 4.65755C9.90536 4.46086 9.8696 4.25524 9.84278 4.04962C9.73422 3.41989 9.40438 2.84962 8.91267 2.4415C8.42096 2.03338 7.79969 1.81424 7.16074 1.82353H4.47871C4.09341 1.81991 3.71187 1.89935 3.36004 2.05644C3.00821 2.21354 2.69435 2.44459 2.43985 2.73388C2.18534 3.02317 1.99615 3.3639 1.88516 3.73288C1.77417 4.10186 1.74399 4.49042 1.79667 4.87211C2.27294 8.61747 3.98345 12.0974 6.658 14.7622C9.33255 17.4271 12.8187 19.1249 16.5658 19.5876H16.9055C17.5647 19.5885 18.2013 19.3466 18.6935 18.9081C18.9763 18.6551 19.2023 18.345 19.3564 17.9983C19.5105 17.6515 19.5893 17.276 19.5875 16.8966V14.2145C19.5766 13.5935 19.3504 12.9956 18.9477 12.5228C18.545 12.0499 17.9907 11.7315 17.3793 11.6219ZM17.8263 16.986C17.8262 17.1129 17.799 17.2384 17.7466 17.354C17.6941 17.4696 17.6177 17.5727 17.5224 17.6565C17.4225 17.7427 17.3056 17.8072 17.1794 17.8457C17.0532 17.8841 16.9203 17.8958 16.7893 17.88C13.4411 17.4507 10.3311 15.919 7.9499 13.5264C5.56868 11.1339 4.05173 8.01665 3.63833 4.66649C3.6241 4.53553 3.63657 4.40305 3.67499 4.27705C3.7134 4.15105 3.77697 4.03414 3.86184 3.9334C3.94561 3.83803 4.04874 3.7616 4.16435 3.70919C4.27996 3.65678 4.40541 3.62959 4.53235 3.62943H7.21438C7.42228 3.62481 7.62529 3.6928 7.78847 3.82171C7.95164 3.95062 8.06478 4.13238 8.1084 4.3357C8.14416 4.58007 8.18886 4.82145 8.2425 5.05985C8.34578 5.53113 8.48322 5.99426 8.65375 6.44557L7.40213 7.02668C7.29511 7.07578 7.19885 7.14554 7.11887 7.23194C7.03888 7.31835 6.97676 7.4197 6.93605 7.53018C6.89535 7.64067 6.87687 7.7581 6.88168 7.87574C6.88648 7.99339 6.91448 8.10892 6.96406 8.21572C8.25072 10.9717 10.4661 13.1871 13.2222 14.4738C13.4398 14.5632 13.6839 14.5632 13.9016 14.4738C14.0131 14.4339 14.1156 14.3723 14.203 14.2925C14.2905 14.2127 14.3613 14.1163 14.4112 14.0089L14.9655 12.7573C15.4277 12.9226 15.8994 13.0599 16.378 13.1685C16.6164 13.2222 16.8578 13.2669 17.1022 13.3027C17.3055 13.3463 17.4873 13.4594 17.6162 13.6226C17.7451 13.7858 17.8131 13.9888 17.8084 14.1967L17.8263 16.986Z" fill="white" fill-opacity="0.9"/>
</svg>
