<svg width="22" height="23" viewBox="0 0 22 23" fill="none" xmlns="http://www.w3.org/2000/svg">
<path d="M11.0002 8.72634C10.5505 8.72634 10.111 8.85967 9.73717 9.10947C9.36332 9.35926 9.07194 9.71431 8.89988 10.1297C8.72781 10.5451 8.68279 11.0022 8.77051 11.4432C8.85823 11.8842 9.07474 12.2892 9.39267 12.6072C9.7106 12.9251 10.1157 13.1416 10.5567 13.2293C10.9976 13.317 11.4547 13.272 11.8701 13.1C12.2855 12.9279 12.6406 12.6365 12.8904 12.2627C13.1402 11.8888 13.2735 11.4493 13.2735 10.9997C13.2735 10.7011 13.2147 10.4055 13.1004 10.1297C12.9862 9.85389 12.8188 9.60328 12.6077 9.39218C12.3966 9.18109 12.1459 9.01363 11.8701 8.89939C11.5943 8.78514 11.2987 8.72634 11.0002 8.72634ZM20.1027 6.48051C20.0978 5.77262 19.9675 5.0712 19.7177 4.40884C19.5337 3.92416 19.249 3.48401 18.8824 3.11743C18.5158 2.75084 18.0757 2.46617 17.591 2.28217C16.9286 2.03235 16.2272 1.902 15.5193 1.89717C14.3368 1.83301 13.9885 1.83301 11.0002 1.83301C8.01183 1.83301 7.6635 1.83301 6.481 1.89717C5.77311 1.902 5.07169 2.03235 4.40933 2.28217C3.92465 2.46617 3.4845 2.75084 3.11792 3.11743C2.75133 3.48401 2.46665 3.92416 2.28266 4.40884C2.03284 5.0712 1.90249 5.77262 1.89766 6.48051C1.8335 7.66301 1.8335 8.01134 1.8335 10.9997C1.8335 13.988 1.8335 14.3363 1.89766 15.5188C1.90753 16.2292 2.03771 16.9328 2.28266 17.5997C2.46584 18.0821 2.75028 18.5197 3.11683 18.883C3.48184 19.2518 3.92294 19.5365 4.40933 19.7172C5.07169 19.967 5.77311 20.0974 6.481 20.1022C7.6635 20.1663 8.01183 20.1663 11.0002 20.1663C13.9885 20.1663 14.3368 20.1663 15.5193 20.1022C16.2272 20.0974 16.9286 19.967 17.591 19.7172C18.0774 19.5365 18.5185 19.2518 18.8835 18.883C19.25 18.5197 19.5345 18.0821 19.7177 17.5997C19.9672 16.9341 20.0976 16.2297 20.1027 15.5188C20.1668 14.3363 20.1668 13.988 20.1668 10.9997C20.1668 8.01134 20.1668 7.66301 20.1027 6.48051ZM17.7743 13.8138C17.7449 14.3795 17.6242 14.9367 17.4168 15.4638C17.2389 15.9036 16.9743 16.303 16.6389 16.6384C16.3035 16.9738 15.904 17.2384 15.4643 17.4163C14.9322 17.6121 14.3719 17.7205 13.8052 17.7372C13.081 17.7372 12.8885 17.7372 11.0002 17.7372C9.11183 17.7372 8.91933 17.7372 8.19516 17.7372C7.62842 17.7205 7.06811 17.6121 6.536 17.4163C6.08142 17.2474 5.67092 16.9779 5.33516 16.628C5.00302 16.2992 4.74652 15.9019 4.5835 15.4638C4.38692 14.9323 4.28155 14.3713 4.27183 13.8047C4.27183 13.0805 4.27183 12.888 4.27183 10.9997C4.27183 9.11134 4.27183 8.91884 4.27183 8.19467C4.28155 7.62801 4.38692 7.06707 4.5835 6.53551C4.75242 6.08094 5.02191 5.67043 5.37183 5.33467C5.70213 5.00433 6.09899 4.74809 6.536 4.58301C7.06811 4.38721 7.62842 4.27887 8.19516 4.26217C8.91933 4.26217 9.11183 4.26217 11.0002 4.26217C12.8885 4.26217 13.081 4.26217 13.8052 4.26217C14.3719 4.27887 14.9322 4.38721 15.4643 4.58301C15.9189 4.75193 16.3294 5.02143 16.6652 5.37134C16.9973 5.70019 17.2538 6.09746 17.4168 6.53551C17.6126 7.06762 17.721 7.62793 17.7377 8.19467C17.7377 8.91884 17.7377 9.11134 17.7377 10.9997C17.7377 12.888 17.8018 13.0805 17.7743 13.8047V13.8138ZM16.3077 6.99384C16.1985 6.69774 16.0264 6.42885 15.8033 6.2057C15.5802 5.98256 15.3113 5.81048 15.0152 5.70134C14.6086 5.56041 14.1804 5.49215 13.7502 5.49967C13.0352 5.49967 12.8335 5.49967 11.0002 5.49967C9.16683 5.49967 8.96516 5.49967 8.25016 5.49967C7.81774 5.5039 7.38948 5.58459 6.98516 5.73801C6.6936 5.84219 6.42755 6.00724 6.2047 6.22219C5.98185 6.43714 5.8073 6.69706 5.69266 6.98467C5.55954 7.39293 5.49451 7.8203 5.50016 8.24967C5.50016 8.96467 5.50016 9.16634 5.50016 10.9997C5.50016 12.833 5.50016 13.0347 5.50016 13.7497C5.50925 14.1816 5.58978 14.609 5.7385 15.0147C5.84764 15.3108 6.01972 15.5797 6.24286 15.8028C6.466 16.026 6.7349 16.198 7.031 16.3072C7.42211 16.451 7.83368 16.5315 8.25016 16.5455C8.96516 16.5455 9.16683 16.5455 11.0002 16.5455C12.8335 16.5455 13.0352 16.5455 13.7502 16.5455C14.1826 16.5413 14.6108 16.4606 15.0152 16.3072C15.3113 16.198 15.5802 16.026 15.8033 15.8028C16.0264 15.5797 16.1985 15.3108 16.3077 15.0147C16.4611 14.6104 16.5418 14.1821 16.546 13.7497C16.546 13.0347 16.546 12.833 16.546 10.9997C16.546 9.16634 16.546 8.96467 16.546 8.24967C16.5463 7.81682 16.4654 7.38775 16.3077 6.98467V6.99384ZM11.0002 14.5013C10.5407 14.5013 10.0858 14.4107 9.66152 14.2346C9.23719 14.0585 8.85177 13.8005 8.52735 13.4752C8.20292 13.1499 7.94585 12.7638 7.77088 12.339C7.5959 11.9142 7.50646 11.4591 7.50766 10.9997C7.50766 10.3067 7.71327 9.62935 8.09844 9.0533C8.48362 8.47726 9.03104 8.02845 9.67143 7.76369C10.3118 7.49893 11.0163 7.43012 11.6958 7.56598C12.3754 7.70183 12.9993 8.03625 13.4886 8.52688C13.978 9.01752 14.3108 9.64231 14.4448 10.3222C14.5789 11.002 14.5082 11.7064 14.2418 12.3461C13.9754 12.9858 13.5251 13.532 12.9481 13.9157C12.371 14.2993 11.6931 14.5032 11.0002 14.5013ZM14.6668 8.18551C14.4642 8.16406 14.2767 8.06838 14.1404 7.9169C14.0041 7.76542 13.9287 7.56886 13.9287 7.36509C13.9287 7.16132 14.0041 6.96476 14.1404 6.81328C14.2767 6.66181 14.4642 6.56612 14.6668 6.54467C14.8695 6.56612 15.057 6.66181 15.1933 6.81328C15.3296 6.96476 15.405 7.16132 15.405 7.36509C15.405 7.56886 15.3296 7.76542 15.1933 7.9169C15.057 8.06838 14.8695 8.16406 14.6668 8.18551Z" fill="#5C755E"/>
</svg>
