<svg width="20" height="21" viewBox="0 0 20 21" fill="none" xmlns="http://www.w3.org/2000/svg">
<path d="M18.9844 15.3359C18.9844 17.3426 17.3426 18.9844 15.3359 18.9844H4.6641C2.65742 18.9844 1.01562 17.3426 1.01562 15.3359V4.6641C1.01562 2.65746 2.65742 1.01562 4.6641 1.01562H15.3359C17.3426 1.01562 18.9844 2.65746 18.9844 4.6641V15.3359Z" fill="#5C755E"/>
<path d="M11.3447 9.10391L15.667 3.7168H14.415L10.7189 8.32383L7.02246 3.7168H2.89551L8.65527 10.8957L4.33262 16.2832H5.58457L9.28105 11.6758L12.9779 16.2832H17.1049L11.3447 9.10391ZM4.93066 4.69332H6.55371L15.0693 15.3066H13.4463L4.93066 4.69332Z" fill="white"/>
</svg>
