<svg width="267" height="22" viewBox="0 0 267 22" fill="none" xmlns="http://www.w3.org/2000/svg">
<path d="M253.725 6.44831L258.276 11L253.725 15.5518" stroke="#5C755E" stroke-width="2" stroke-miterlimit="10" stroke-linecap="round" stroke-linejoin="round"/>
<path d="M0.367676 4.48438H2.93799L5.43799 13.2266L7.96143 4.48438H10.4614L6.53174 16H4.2583L0.367676 4.48438ZM13.7192 7.48438V16H11.4614V7.48438H13.7192ZM13.7192 4.41406V6.46875H11.4614V4.41406H13.7192ZM23.1724 13.5C23.1151 14.0052 22.8521 14.5182 22.3833 15.0391C21.6541 15.8672 20.6333 16.2812 19.3208 16.2812C18.2375 16.2812 17.2817 15.9323 16.4536 15.2344C15.6255 14.5365 15.2114 13.401 15.2114 11.8281C15.2114 10.3542 15.5838 9.22396 16.3286 8.4375C17.0786 7.65104 18.05 7.25781 19.2427 7.25781C19.951 7.25781 20.589 7.39062 21.1567 7.65625C21.7244 7.92188 22.1932 8.34115 22.563 8.91406C22.8963 9.41927 23.1125 10.0052 23.2114 10.6719C23.2687 11.0625 23.2922 11.625 23.2817 12.3594H17.4536C17.4849 13.2135 17.7531 13.8125 18.2583 14.1562C18.5656 14.3698 18.9354 14.4766 19.3677 14.4766C19.826 14.4766 20.1984 14.3464 20.4849 14.0859C20.6411 13.9453 20.7791 13.75 20.8989 13.5H23.1724ZM20.9692 10.8906C20.9328 10.3021 20.7531 9.85677 20.4302 9.55469C20.1125 9.2474 19.7166 9.09375 19.2427 9.09375C18.7271 9.09375 18.326 9.25521 18.0396 9.57812C17.7583 9.90104 17.5812 10.3385 17.5083 10.8906H20.9692ZM31.2505 16L29.9146 9.79688L28.563 16H26.2505L23.8599 7.48438H26.2505L27.5786 13.5938L28.8052 7.48438H31.063L32.3599 13.6172L33.688 7.48438H36.0083L33.5396 16H31.2505ZM49.8911 10.9688H44.2974V13.9297H50.6724V16H41.9458V4.48438H50.3911V6.52344H44.2974V8.96875H49.8911V10.9688ZM56.3755 9.13281C55.6203 9.13281 55.1021 9.45312 54.8208 10.0938C54.675 10.4323 54.6021 10.8646 54.6021 11.3906V16H52.3833V7.5H54.5317V8.74219C54.8182 8.30469 55.089 7.98958 55.3442 7.79688C55.8026 7.45312 56.3833 7.28125 57.0864 7.28125C57.9666 7.28125 58.6854 7.51302 59.2427 7.97656C59.8052 8.4349 60.0864 9.19792 60.0864 10.2656V16H57.8052V10.8203C57.8052 10.3724 57.7453 10.0286 57.6255 9.78906C57.4067 9.35156 56.9901 9.13281 56.3755 9.13281ZM69.438 13.5C69.3807 14.0052 69.1177 14.5182 68.6489 15.0391C67.9198 15.8672 66.8989 16.2812 65.5864 16.2812C64.5031 16.2812 63.5474 15.9323 62.7192 15.2344C61.8911 14.5365 61.4771 13.401 61.4771 11.8281C61.4771 10.3542 61.8494 9.22396 62.5942 8.4375C63.3442 7.65104 64.3156 7.25781 65.5083 7.25781C66.2166 7.25781 66.8547 7.39062 67.4224 7.65625C67.9901 7.92188 68.4588 8.34115 68.8286 8.91406C69.1619 9.41927 69.3781 10.0052 69.4771 10.6719C69.5343 11.0625 69.5578 11.625 69.5474 12.3594H63.7192C63.7505 13.2135 64.0187 13.8125 64.5239 14.1562C64.8312 14.3698 65.201 14.4766 65.6333 14.4766C66.0916 14.4766 66.464 14.3464 66.7505 14.0859C66.9067 13.9453 67.0448 13.75 67.1646 13.5H69.438ZM67.2349 10.8906C67.1984 10.3021 67.0187 9.85677 66.6958 9.55469C66.3781 9.2474 65.9823 9.09375 65.5083 9.09375C64.9927 9.09375 64.5916 9.25521 64.3052 9.57812C64.0239 9.90104 63.8468 10.3385 63.7739 10.8906H67.2349ZM75.3364 9.53906C74.4406 9.53906 73.839 9.83073 73.5317 10.4141C73.3599 10.7422 73.2739 11.2474 73.2739 11.9297V16H71.0317V7.48438H73.1567V8.96875C73.5005 8.40104 73.8 8.01302 74.0552 7.80469C74.4718 7.45573 75.0135 7.28125 75.6802 7.28125C75.7218 7.28125 75.7557 7.28385 75.7817 7.28906C75.813 7.28906 75.8781 7.29167 75.9771 7.29688V9.57812C75.8364 9.5625 75.7114 9.55208 75.6021 9.54688C75.4927 9.54167 75.4041 9.53906 75.3364 9.53906ZM79.6958 17.4922C79.9354 17.6953 80.339 17.7969 80.9067 17.7969C81.7088 17.7969 82.2453 17.5286 82.5161 16.9922C82.6932 16.6484 82.7817 16.0703 82.7817 15.2578V14.7109C82.5682 15.0755 82.339 15.349 82.0942 15.5312C81.6515 15.8698 81.076 16.0391 80.3677 16.0391C79.2739 16.0391 78.3989 15.6562 77.7427 14.8906C77.0916 14.1198 76.7661 13.0781 76.7661 11.7656C76.7661 10.5 77.0812 9.4375 77.7114 8.57812C78.3416 7.71354 79.2349 7.28125 80.3911 7.28125C80.8182 7.28125 81.1906 7.34635 81.5083 7.47656C82.05 7.70052 82.4875 8.11198 82.8208 8.71094V7.48438H84.9849V15.5625C84.9849 16.6615 84.8 17.4896 84.4302 18.0469C83.7948 19.0052 82.576 19.4844 80.7739 19.4844C79.6854 19.4844 78.7974 19.2708 78.1099 18.8438C77.4224 18.4167 77.0422 17.7786 76.9692 16.9297H79.3911C79.4536 17.1901 79.5552 17.3776 79.6958 17.4922ZM79.3208 13.0938C79.6229 13.8125 80.1646 14.1719 80.9458 14.1719C81.4666 14.1719 81.9067 13.9766 82.2661 13.5859C82.6255 13.1901 82.8052 12.5625 82.8052 11.7031C82.8052 10.8958 82.6333 10.2812 82.2896 9.85938C81.951 9.4375 81.4953 9.22656 80.9224 9.22656C80.1411 9.22656 79.6021 9.59375 79.3052 10.3281C79.1489 10.7188 79.0708 11.2005 79.0708 11.7734C79.0708 12.2682 79.1541 12.7083 79.3208 13.0938ZM90.5317 13.7656L92.2896 7.48438H94.6567L91.7349 15.8594C91.1724 17.474 90.7271 18.474 90.3989 18.8594C90.0708 19.25 89.4146 19.4453 88.4302 19.4453C88.2323 19.4453 88.0734 19.4427 87.9536 19.4375C87.8338 19.4375 87.6541 19.4297 87.4146 19.4141V17.6328L87.6958 17.6484C87.9146 17.6589 88.1229 17.651 88.3208 17.625C88.5187 17.599 88.6854 17.5391 88.8208 17.4453C88.951 17.3568 89.0708 17.1719 89.1802 16.8906C89.2948 16.6094 89.3416 16.4375 89.3208 16.375L86.1958 7.48438H88.6724L90.5317 13.7656ZM108.625 10.9688H103.032V13.9297H109.407V16H100.68V4.48438H109.125V6.52344H103.032V8.96875H108.625V10.9688ZM115.094 4.41406V6.22656C114.969 6.21094 114.758 6.20052 114.461 6.19531C114.17 6.1849 113.967 6.25 113.852 6.39062C113.743 6.52604 113.688 6.67708 113.688 6.84375V7.5625H115.149V9.13281H113.688V16H111.469V9.13281H110.227V7.5625H111.446V7.01562C111.446 6.10417 111.599 5.47656 111.907 5.13281C112.23 4.6224 113.008 4.36719 114.243 4.36719C114.383 4.36719 114.511 4.3724 114.625 4.38281C114.74 4.38802 114.896 4.39844 115.094 4.41406ZM119.071 16H116.852V9.13281H115.61V7.5625H116.829V7.01562C116.829 6.10938 117.029 5.4349 117.43 4.99219C117.79 4.57552 118.521 4.36719 119.625 4.36719C119.761 4.36719 119.899 4.3724 120.04 4.38281C120.18 4.39323 120.326 4.40365 120.477 4.41406V6.22656C120.373 6.22135 120.271 6.21875 120.172 6.21875C120.073 6.21354 119.954 6.21094 119.813 6.21094C119.464 6.21094 119.25 6.30729 119.172 6.5C119.094 6.69271 119.06 6.99479 119.071 7.40625V7.5625H120.532V9.13281H119.071V16ZM124.071 7.52344V16H121.852V7.52344H124.071ZM121.852 6.44531V4.41406H124.032V6.44531H121.852ZM133.579 10.5391H131.297C131.256 10.2214 131.149 9.9349 130.977 9.67969C130.727 9.33594 130.339 9.16406 129.813 9.16406C129.063 9.16406 128.55 9.53646 128.274 10.2812C128.128 10.6771 128.055 11.2031 128.055 11.8594C128.055 12.4844 128.128 12.987 128.274 13.3672C128.54 14.0755 129.04 14.4297 129.774 14.4297C130.295 14.4297 130.665 14.2891 130.883 14.0078C131.102 13.7266 131.235 13.362 131.282 12.9141H133.555C133.503 13.5911 133.258 14.2318 132.821 14.8359C132.123 15.8099 131.089 16.2969 129.719 16.2969C128.349 16.2969 127.342 15.8906 126.696 15.0781C126.05 14.2656 125.727 13.2109 125.727 11.9141C125.727 10.4505 126.084 9.3125 126.797 8.5C127.511 7.6875 128.495 7.28125 129.75 7.28125C130.818 7.28125 131.691 7.52083 132.368 8C133.05 8.47917 133.454 9.32552 133.579 10.5391ZM137.407 7.48438V16H135.149V7.48438H137.407ZM137.407 4.41406V6.46875H135.149V4.41406H137.407ZM146.86 13.5C146.803 14.0052 146.54 14.5182 146.071 15.0391C145.342 15.8672 144.321 16.2812 143.008 16.2812C141.925 16.2812 140.969 15.9323 140.141 15.2344C139.313 14.5365 138.899 13.401 138.899 11.8281C138.899 10.3542 139.271 9.22396 140.016 8.4375C140.766 7.65104 141.737 7.25781 142.93 7.25781C143.639 7.25781 144.277 7.39062 144.844 7.65625C145.412 7.92188 145.881 8.34115 146.25 8.91406C146.584 9.41927 146.8 10.0052 146.899 10.6719C146.956 11.0625 146.98 11.625 146.969 12.3594H141.141C141.172 13.2135 141.441 13.8125 141.946 14.1562C142.253 14.3698 142.623 14.4766 143.055 14.4766C143.514 14.4766 143.886 14.3464 144.172 14.0859C144.329 13.9453 144.467 13.75 144.586 13.5H146.86ZM144.657 10.8906C144.62 10.3021 144.441 9.85677 144.118 9.55469C143.8 9.2474 143.404 9.09375 142.93 9.09375C142.415 9.09375 142.014 9.25521 141.727 9.57812C141.446 9.90104 141.269 10.3385 141.196 10.8906H144.657ZM152.485 9.13281C151.73 9.13281 151.211 9.45312 150.93 10.0938C150.784 10.4323 150.711 10.8646 150.711 11.3906V16H148.493V7.5H150.641V8.74219C150.928 8.30469 151.198 7.98958 151.454 7.79688C151.912 7.45312 152.493 7.28125 153.196 7.28125C154.076 7.28125 154.795 7.51302 155.352 7.97656C155.915 8.4349 156.196 9.19792 156.196 10.2656V16H153.915V10.8203C153.915 10.3724 153.855 10.0286 153.735 9.78906C153.516 9.35156 153.099 9.13281 152.485 9.13281ZM165.625 10.5391H163.344C163.303 10.2214 163.196 9.9349 163.024 9.67969C162.774 9.33594 162.386 9.16406 161.86 9.16406C161.11 9.16406 160.597 9.53646 160.321 10.2812C160.175 10.6771 160.102 11.2031 160.102 11.8594C160.102 12.4844 160.175 12.987 160.321 13.3672C160.586 14.0755 161.086 14.4297 161.821 14.4297C162.342 14.4297 162.711 14.2891 162.93 14.0078C163.149 13.7266 163.282 13.362 163.329 12.9141H165.602C165.55 13.5911 165.305 14.2318 164.868 14.8359C164.17 15.8099 163.136 16.2969 161.766 16.2969C160.396 16.2969 159.389 15.8906 158.743 15.0781C158.097 14.2656 157.774 13.2109 157.774 11.9141C157.774 10.4505 158.131 9.3125 158.844 8.5C159.558 7.6875 160.542 7.28125 161.797 7.28125C162.865 7.28125 163.737 7.52083 164.415 8C165.097 8.47917 165.5 9.32552 165.625 10.5391ZM170.625 13.7656L172.383 7.48438H174.75L171.829 15.8594C171.266 17.474 170.821 18.474 170.493 18.8594C170.165 19.25 169.508 19.4453 168.524 19.4453C168.326 19.4453 168.167 19.4427 168.047 19.4375C167.928 19.4375 167.748 19.4297 167.508 19.4141V17.6328L167.79 17.6484C168.008 17.6589 168.217 17.651 168.415 17.625C168.612 17.599 168.779 17.5391 168.915 17.4453C169.045 17.3568 169.165 17.1719 169.274 16.8906C169.389 16.6094 169.435 16.4375 169.415 16.375L166.29 7.48438H168.766L170.625 13.7656ZM180.516 4.48438H182.907V16H180.516V4.48438ZM188.985 9.13281C188.23 9.13281 187.711 9.45312 187.43 10.0938C187.284 10.4323 187.211 10.8646 187.211 11.3906V16H184.993V7.5H187.141V8.74219C187.428 8.30469 187.698 7.98958 187.954 7.79688C188.412 7.45312 188.993 7.28125 189.696 7.28125C190.576 7.28125 191.295 7.51302 191.852 7.97656C192.415 8.4349 192.696 9.19792 192.696 10.2656V16H190.415V10.8203C190.415 10.3724 190.355 10.0286 190.235 9.78906C190.016 9.35156 189.599 9.13281 188.985 9.13281ZM200.625 7.875C201.292 8.30208 201.675 9.03646 201.774 10.0781H199.547C199.516 9.79167 199.435 9.5651 199.305 9.39844C199.06 9.09635 198.644 8.94531 198.055 8.94531C197.571 8.94531 197.224 9.02083 197.016 9.17188C196.813 9.32292 196.711 9.5 196.711 9.70312C196.711 9.95833 196.821 10.1432 197.04 10.2578C197.258 10.3776 198.032 10.5833 199.36 10.875C200.245 11.0833 200.909 11.3984 201.352 11.8203C201.79 12.2474 202.008 12.7812 202.008 13.4219C202.008 14.2656 201.693 14.9557 201.063 15.4922C200.438 16.0234 199.469 16.2891 198.157 16.2891C196.818 16.2891 195.829 16.0078 195.188 15.4453C194.553 14.8776 194.235 14.1562 194.235 13.2812H196.493C196.54 13.6771 196.641 13.9583 196.797 14.125C197.073 14.4219 197.584 14.5703 198.329 14.5703C198.766 14.5703 199.112 14.5052 199.368 14.375C199.628 14.2448 199.758 14.0495 199.758 13.7891C199.758 13.5391 199.654 13.349 199.446 13.2188C199.237 13.0885 198.464 12.8646 197.125 12.5469C196.162 12.3073 195.482 12.0078 195.086 11.6484C194.691 11.2943 194.493 10.7839 194.493 10.1172C194.493 9.33073 194.8 8.65625 195.415 8.09375C196.034 7.52604 196.904 7.24219 198.024 7.24219C199.086 7.24219 199.954 7.45312 200.625 7.875ZM205.954 7.48438V16H203.696V7.48438H205.954ZM205.954 4.41406V6.46875H203.696V4.41406H205.954ZM210.524 17.4922C210.764 17.6953 211.167 17.7969 211.735 17.7969C212.537 17.7969 213.073 17.5286 213.344 16.9922C213.521 16.6484 213.61 16.0703 213.61 15.2578V14.7109C213.396 15.0755 213.167 15.349 212.922 15.5312C212.48 15.8698 211.904 16.0391 211.196 16.0391C210.102 16.0391 209.227 15.6562 208.571 14.8906C207.92 14.1198 207.594 13.0781 207.594 11.7656C207.594 10.5 207.909 9.4375 208.54 8.57812C209.17 7.71354 210.063 7.28125 211.219 7.28125C211.646 7.28125 212.019 7.34635 212.336 7.47656C212.878 7.70052 213.316 8.11198 213.649 8.71094V7.48438H215.813V15.5625C215.813 16.6615 215.628 17.4896 215.258 18.0469C214.623 19.0052 213.404 19.4844 211.602 19.4844C210.514 19.4844 209.625 19.2708 208.938 18.8438C208.25 18.4167 207.87 17.7786 207.797 16.9297H210.219C210.282 17.1901 210.383 17.3776 210.524 17.4922ZM210.149 13.0938C210.451 13.8125 210.993 14.1719 211.774 14.1719C212.295 14.1719 212.735 13.9766 213.094 13.5859C213.454 13.1901 213.633 12.5625 213.633 11.7031C213.633 10.8958 213.461 10.2812 213.118 9.85938C212.779 9.4375 212.323 9.22656 211.75 9.22656C210.969 9.22656 210.43 9.59375 210.133 10.3281C209.977 10.7188 209.899 11.2005 209.899 11.7734C209.899 12.2682 209.982 12.7083 210.149 13.0938ZM225.594 11V16H223.321V10.8203C223.321 10.362 223.243 9.99219 223.086 9.71094C222.883 9.3151 222.498 9.11719 221.93 9.11719C221.342 9.11719 220.894 9.3151 220.586 9.71094C220.284 10.1016 220.133 10.6615 220.133 11.3906V16H217.915V4.52344H220.133V8.59375C220.456 8.09896 220.829 7.75521 221.25 7.5625C221.678 7.36458 222.125 7.26562 222.594 7.26562C223.12 7.26562 223.597 7.35677 224.024 7.53906C224.456 7.72135 224.81 8 225.086 8.375C225.321 8.69271 225.464 9.02083 225.516 9.35938C225.568 9.69271 225.594 10.2396 225.594 11ZM231.579 14.4141V16.0781L230.524 16.1172C229.472 16.1536 228.753 15.9714 228.368 15.5703C228.118 15.3151 227.993 14.9219 227.993 14.3906V9.14844H226.805V7.5625H227.993V5.1875H230.196V7.5625H231.579V9.14844H230.196V13.6484C230.196 13.9974 230.24 14.2161 230.329 14.3047C230.417 14.388 230.688 14.4297 231.141 14.4297C231.209 14.4297 231.279 14.4297 231.352 14.4297C231.43 14.4245 231.506 14.4193 231.579 14.4141ZM238.875 7.875C239.542 8.30208 239.925 9.03646 240.024 10.0781H237.797C237.766 9.79167 237.685 9.5651 237.555 9.39844C237.31 9.09635 236.894 8.94531 236.305 8.94531C235.821 8.94531 235.474 9.02083 235.266 9.17188C235.063 9.32292 234.961 9.5 234.961 9.70312C234.961 9.95833 235.071 10.1432 235.29 10.2578C235.508 10.3776 236.282 10.5833 237.61 10.875C238.495 11.0833 239.159 11.3984 239.602 11.8203C240.04 12.2474 240.258 12.7812 240.258 13.4219C240.258 14.2656 239.943 14.9557 239.313 15.4922C238.688 16.0234 237.719 16.2891 236.407 16.2891C235.068 16.2891 234.079 16.0078 233.438 15.4453C232.803 14.8776 232.485 14.1562 232.485 13.2812H234.743C234.79 13.6771 234.891 13.9583 235.047 14.125C235.323 14.4219 235.834 14.5703 236.579 14.5703C237.016 14.5703 237.362 14.5052 237.618 14.375C237.878 14.2448 238.008 14.0495 238.008 13.7891C238.008 13.5391 237.904 13.349 237.696 13.2188C237.487 13.0885 236.714 12.8646 235.375 12.5469C234.412 12.3073 233.732 12.0078 233.336 11.6484C232.941 11.2943 232.743 10.7839 232.743 10.1172C232.743 9.33073 233.05 8.65625 233.665 8.09375C234.284 7.52604 235.154 7.24219 236.274 7.24219C237.336 7.24219 238.204 7.45312 238.875 7.875Z" fill="#5C755E"/>
</svg>
