<svg width="556" height="576" viewBox="0 0 556 576" fill="none" xmlns="http://www.w3.org/2000/svg">
<circle cx="278" cy="289" r="278" fill="url(#paint0_linear_54646_63)" fill-opacity="0.2"/>
<g filter="url(#filter0_d_54646_63)">
<rect x="162.358" y="50.7883" width="231.087" height="474.635" rx="30" fill="black"/>
</g>
<path d="M224.475 143.605H227.629L233.361 153.654V143.605H236.164V158H233.156L227.277 147.775V158H224.475V143.605ZM241.613 146.086H238.791V143.518H241.613V146.086ZM238.791 147.355H241.613V158H238.791V147.355ZM248.889 155.715C249.54 155.715 250.09 155.471 250.539 154.982C250.988 154.488 251.213 153.703 251.213 152.629C251.213 151.62 250.998 150.852 250.568 150.324C250.145 149.797 249.576 149.533 248.859 149.533C247.883 149.533 247.209 149.992 246.838 150.91C246.643 151.398 246.545 152.001 246.545 152.717C246.545 153.335 246.649 153.885 246.857 154.367C247.235 155.266 247.912 155.715 248.889 155.715ZM248.195 147.102C248.729 147.102 249.195 147.183 249.592 147.346C250.269 147.626 250.816 148.14 251.232 148.889V147.355H253.938V157.453C253.938 158.827 253.706 159.862 253.244 160.559C252.45 161.757 250.926 162.355 248.674 162.355C247.313 162.355 246.203 162.089 245.344 161.555C244.484 161.021 244.009 160.223 243.918 159.162H246.945C247.023 159.488 247.15 159.722 247.326 159.865C247.626 160.119 248.13 160.246 248.84 160.246C249.842 160.246 250.513 159.911 250.852 159.24C251.073 158.811 251.184 158.088 251.184 157.072V156.389C250.917 156.844 250.63 157.186 250.324 157.414C249.771 157.837 249.051 158.049 248.166 158.049C246.799 158.049 245.705 157.57 244.885 156.613C244.071 155.65 243.664 154.348 243.664 152.707C243.664 151.125 244.058 149.797 244.846 148.723C245.633 147.642 246.75 147.102 248.195 147.102ZM262.414 147.082C263.072 147.082 263.667 147.196 264.201 147.424C264.742 147.652 265.184 148 265.529 148.469C265.822 148.866 266.001 149.276 266.066 149.699C266.132 150.116 266.164 150.799 266.164 151.75V158H263.322V151.525C263.322 150.952 263.225 150.49 263.029 150.139C262.775 149.644 262.294 149.396 261.584 149.396C260.848 149.396 260.288 149.644 259.904 150.139C259.527 150.627 259.338 151.327 259.338 152.238V158H256.564V143.654H259.338V148.742C259.742 148.124 260.207 147.694 260.734 147.453C261.268 147.206 261.828 147.082 262.414 147.082ZM267.678 149.436V147.453H269.162V144.484H271.916V147.453H273.645V149.436H271.916V155.061C271.916 155.497 271.971 155.77 272.082 155.881C272.193 155.985 272.531 156.037 273.098 156.037C273.182 156.037 273.27 156.037 273.361 156.037C273.459 156.031 273.553 156.024 273.645 156.018V158.098L272.326 158.146C271.011 158.192 270.113 157.964 269.631 157.463C269.318 157.144 269.162 156.652 269.162 155.988V149.436H267.678ZM290.764 143.605H295.09V158H292.287V148.264C292.287 147.984 292.29 147.593 292.297 147.092C292.303 146.584 292.307 146.193 292.307 145.92L289.582 158H286.662L283.957 145.92C283.957 146.193 283.96 146.584 283.967 147.092C283.973 147.593 283.977 147.984 283.977 148.264V158H281.174V143.605H285.549L288.166 154.924L290.764 143.605ZM302.434 156.037C303.247 156.037 303.872 155.747 304.309 155.168C304.745 154.589 304.963 153.765 304.963 152.697C304.963 151.63 304.745 150.809 304.309 150.236C303.872 149.657 303.247 149.367 302.434 149.367C301.62 149.367 300.992 149.657 300.549 150.236C300.113 150.809 299.895 151.63 299.895 152.697C299.895 153.765 300.113 154.589 300.549 155.168C300.992 155.747 301.62 156.037 302.434 156.037ZM307.883 152.697C307.883 154.26 307.434 155.598 306.535 156.711C305.637 157.818 304.273 158.371 302.443 158.371C300.614 158.371 299.25 157.818 298.352 156.711C297.453 155.598 297.004 154.26 297.004 152.697C297.004 151.161 297.453 149.829 298.352 148.703C299.25 147.577 300.614 147.014 302.443 147.014C304.273 147.014 305.637 147.577 306.535 148.703C307.434 149.829 307.883 151.161 307.883 152.697ZM313.811 147.102C314.455 147.102 315.028 147.245 315.529 147.531C316.031 147.811 316.438 148.202 316.75 148.703V143.625H319.572V158H316.867V156.525C316.47 157.157 316.018 157.616 315.51 157.902C315.002 158.189 314.37 158.332 313.615 158.332C312.372 158.332 311.324 157.831 310.471 156.828C309.624 155.819 309.201 154.527 309.201 152.951C309.201 151.135 309.618 149.706 310.451 148.664C311.291 147.622 312.411 147.102 313.811 147.102ZM314.416 155.988C315.204 155.988 315.803 155.695 316.213 155.109C316.623 154.523 316.828 153.765 316.828 152.834C316.828 151.532 316.499 150.601 315.842 150.041C315.438 149.702 314.969 149.533 314.436 149.533C313.622 149.533 313.023 149.842 312.639 150.461C312.261 151.073 312.072 151.835 312.072 152.746C312.072 153.729 312.264 154.517 312.648 155.109C313.039 155.695 313.628 155.988 314.416 155.988ZM326.311 149.367C325.666 149.367 325.165 149.569 324.807 149.973C324.455 150.376 324.234 150.923 324.143 151.613H328.469C328.423 150.878 328.199 150.321 327.795 149.943C327.398 149.559 326.903 149.367 326.311 149.367ZM326.311 147.072C327.196 147.072 327.993 147.238 328.703 147.57C329.413 147.902 329.999 148.426 330.461 149.143C330.878 149.774 331.148 150.507 331.271 151.34C331.343 151.828 331.372 152.531 331.359 153.449H324.074C324.113 154.517 324.449 155.266 325.08 155.695C325.464 155.962 325.926 156.096 326.467 156.096C327.04 156.096 327.505 155.933 327.863 155.607C328.059 155.432 328.231 155.188 328.381 154.875H331.223C331.151 155.507 330.822 156.148 330.236 156.799C329.325 157.834 328.049 158.352 326.408 158.352C325.054 158.352 323.859 157.915 322.824 157.043C321.789 156.171 321.271 154.751 321.271 152.785C321.271 150.943 321.737 149.53 322.668 148.547C323.605 147.564 324.82 147.072 326.311 147.072Z" fill="white"/>
<path d="M300.213 224.123C296.028 230.652 288.715 234.982 280.389 235C267.49 235.028 256.899 224.594 256.743 211.697C256.596 199.561 265.613 189.5 277.308 188.002C277.558 187.97 277.721 188.256 277.569 188.457C274.749 192.19 273.077 196.837 273.077 201.876C273.077 214.183 283.053 224.159 295.36 224.159C296.921 224.159 298.443 223.999 299.913 223.693C300.16 223.641 300.349 223.911 300.213 224.123Z" fill="#EFDA45"/>
<path d="M299.914 223.692C300.161 223.641 300.349 223.91 300.213 224.122C296.02 230.665 288.685 235 280.337 235C267.305 235 256.742 224.436 256.742 211.405C256.742 206.19 258.433 201.371 261.298 197.465C260.648 199.598 260.292 201.861 260.278 204.204C260.198 217.334 270.743 227.946 283.873 227.946C288.631 227.945 293.06 226.537 296.765 224.114C297.838 224.048 298.889 223.906 299.914 223.692Z" fill="#EDC148"/>
<rect x="177" y="277" width="201" height="48" rx="15" fill="#2E2E2E"/>
<path d="M241.632 303.656H237.024L235.824 307H234.224L238.544 295.512H240.304L244.464 307H242.768L241.632 303.656ZM237.504 302.28H241.072L239.376 297.224H239.344L237.504 302.28ZM252.656 295.512V307H251.328V305.848H251.296C251.019 306.36 250.672 306.723 250.256 306.936C249.84 307.139 249.392 307.24 248.912 307.24C248.24 307.24 247.664 307.101 247.184 306.824C246.704 306.536 246.32 306.163 246.032 305.704C245.755 305.245 245.552 304.744 245.424 304.2C245.296 303.656 245.232 303.112 245.232 302.568C245.232 301.352 245.541 300.355 246.16 299.576C246.789 298.787 247.643 298.392 248.72 298.392C249.072 298.392 249.387 298.44 249.664 298.536C249.941 298.621 250.176 298.739 250.368 298.888C250.56 299.037 250.715 299.181 250.832 299.32C250.949 299.448 251.072 299.608 251.2 299.8L251.216 299.816H251.248V295.512H252.656ZM246.688 302.792C246.688 303.763 246.88 304.547 247.264 305.144C247.648 305.731 248.208 306.024 248.944 306.024C249.189 306.024 249.445 305.981 249.712 305.896C249.979 305.8 250.224 305.645 250.448 305.432C250.683 305.219 250.869 304.925 251.008 304.552C251.157 304.179 251.232 303.731 251.232 303.208C251.232 302.792 251.205 302.387 251.152 301.992C251.099 301.597 250.992 301.224 250.832 300.872C250.683 300.509 250.453 300.216 250.144 299.992C249.845 299.768 249.456 299.656 248.976 299.656C248.464 299.656 248.048 299.763 247.728 299.976C247.419 300.179 247.189 300.445 247.04 300.776C246.891 301.096 246.795 301.421 246.752 301.752C246.709 302.083 246.688 302.429 246.688 302.792ZM256.043 298.632V308.232C256.043 308.488 256.021 308.723 255.979 308.936C255.947 309.16 255.861 309.379 255.723 309.592C255.595 309.816 255.381 309.997 255.083 310.136C254.784 310.285 254.389 310.36 253.899 310.36C253.717 310.36 253.52 310.344 253.306 310.312V309.096H253.595C254.032 309.096 254.315 309.037 254.443 308.92C254.571 308.813 254.635 308.531 254.635 308.072V298.632H256.043ZM256.043 295.512V297.112H254.635V295.512H256.043ZM264.933 307H263.605V305.784L263.573 305.752C263.264 306.264 262.907 306.643 262.501 306.888C262.096 307.123 261.568 307.24 260.917 307.24C260.587 307.24 260.261 307.197 259.941 307.112C259.632 307.027 259.344 306.883 259.077 306.68C258.811 306.477 258.597 306.211 258.437 305.88C258.277 305.539 258.197 305.128 258.197 304.648V298.632H259.605V304.184C259.605 304.835 259.749 305.304 260.037 305.592C260.325 305.88 260.72 306.024 261.221 306.024C261.648 306.024 262.011 305.944 262.309 305.784C262.608 305.613 262.843 305.389 263.013 305.112C263.195 304.835 263.323 304.536 263.397 304.216C263.483 303.896 263.525 303.571 263.525 303.24V298.632H264.933V307ZM273.152 301.016H271.792C271.781 300.845 271.755 300.685 271.712 300.536C271.669 300.387 271.579 300.243 271.44 300.104C271.312 299.955 271.109 299.837 270.832 299.752C270.565 299.656 270.224 299.608 269.808 299.608C269.669 299.608 269.509 299.624 269.328 299.656C269.147 299.677 268.965 299.731 268.784 299.816C268.603 299.901 268.448 300.024 268.32 300.184C268.203 300.344 268.144 300.547 268.144 300.792C268.144 301.112 268.245 301.341 268.448 301.48C268.661 301.619 269.067 301.763 269.664 301.912L271.072 302.264C271.936 302.477 272.544 302.755 272.896 303.096C273.248 303.437 273.424 303.896 273.424 304.472C273.424 305.315 273.115 305.987 272.496 306.488C271.877 306.989 271.083 307.24 270.112 307.24C269.333 307.24 268.699 307.144 268.208 306.952C267.728 306.76 267.365 306.515 267.12 306.216C266.885 305.907 266.725 305.597 266.64 305.288C266.565 304.979 266.523 304.653 266.512 304.312H267.872C267.893 304.536 267.925 304.739 267.968 304.92C268.021 305.091 268.123 305.267 268.272 305.448C268.432 305.619 268.661 305.757 268.96 305.864C269.259 305.971 269.637 306.024 270.096 306.024C270.64 306.024 271.093 305.912 271.456 305.688C271.829 305.464 272.016 305.133 272.016 304.696C272.016 304.376 271.893 304.136 271.648 303.976C271.413 303.816 270.981 303.656 270.352 303.496L268.72 303.096C268.101 302.947 267.621 302.712 267.28 302.392C266.949 302.061 266.784 301.619 266.784 301.064C266.784 300.616 266.869 300.227 267.04 299.896C267.211 299.555 267.445 299.267 267.744 299.032C268.32 298.605 269.056 298.392 269.952 298.392C270.645 298.392 271.211 298.499 271.648 298.712C272.085 298.925 272.411 299.181 272.624 299.48C272.837 299.779 272.976 300.067 273.04 300.344C273.115 300.611 273.152 300.835 273.152 301.016ZM278.112 299.8H276.768V305.24C276.768 305.528 276.848 305.709 277.008 305.784C277.179 305.859 277.381 305.896 277.616 305.896H278.112V307C277.995 307.011 277.781 307.032 277.472 307.064C277.248 307.096 277.109 307.112 277.056 307.112C276.416 307.112 275.973 306.957 275.728 306.648C275.483 306.328 275.36 305.885 275.36 305.32V299.8H274.224V298.632H275.36V296.296H276.768V298.632H278.112V299.8ZM285.605 301.016H284.245C284.234 300.845 284.208 300.685 284.165 300.536C284.122 300.387 284.032 300.243 283.893 300.104C283.765 299.955 283.562 299.837 283.285 299.752C283.018 299.656 282.677 299.608 282.261 299.608C282.122 299.608 281.962 299.624 281.781 299.656C281.6 299.677 281.418 299.731 281.237 299.816C281.056 299.901 280.901 300.024 280.773 300.184C280.656 300.344 280.597 300.547 280.597 300.792C280.597 301.112 280.698 301.341 280.901 301.48C281.114 301.619 281.52 301.763 282.117 301.912L283.525 302.264C284.389 302.477 284.997 302.755 285.349 303.096C285.701 303.437 285.877 303.896 285.877 304.472C285.877 305.315 285.568 305.987 284.949 306.488C284.33 306.989 283.536 307.24 282.565 307.24C281.786 307.24 281.152 307.144 280.661 306.952C280.181 306.76 279.818 306.515 279.573 306.216C279.338 305.907 279.178 305.597 279.093 305.288C279.018 304.979 278.976 304.653 278.965 304.312H280.325C280.346 304.536 280.378 304.739 280.421 304.92C280.474 305.091 280.576 305.267 280.725 305.448C280.885 305.619 281.114 305.757 281.413 305.864C281.712 305.971 282.09 306.024 282.549 306.024C283.093 306.024 283.546 305.912 283.909 305.688C284.282 305.464 284.469 305.133 284.469 304.696C284.469 304.376 284.346 304.136 284.101 303.976C283.866 303.816 283.434 303.656 282.805 303.496L281.173 303.096C280.554 302.947 280.074 302.712 279.733 302.392C279.402 302.061 279.237 301.619 279.237 301.064C279.237 300.616 279.322 300.227 279.493 299.896C279.664 299.555 279.898 299.267 280.197 299.032C280.773 298.605 281.509 298.392 282.405 298.392C283.098 298.392 283.664 298.499 284.101 298.712C284.538 298.925 284.864 299.181 285.077 299.48C285.29 299.779 285.429 300.067 285.493 300.344C285.568 300.611 285.605 300.835 285.605 301.016ZM293.674 295.512V305.624H299.498V307H292.122V295.512H293.674ZM302.277 298.632V307H300.869V298.632H302.277ZM302.277 297.112H300.869V295.512H302.277V297.112ZM305.44 302.792C305.44 303.763 305.632 304.547 306.016 305.144C306.4 305.731 306.96 306.024 307.696 306.024C307.941 306.024 308.197 305.981 308.464 305.896C308.73 305.8 308.976 305.645 309.2 305.432C309.434 305.219 309.621 304.925 309.76 304.552C309.909 304.179 309.984 303.731 309.984 303.208C309.984 302.792 309.957 302.387 309.904 301.992C309.85 301.597 309.744 301.224 309.584 300.872C309.434 300.509 309.205 300.216 308.896 299.992C308.597 299.768 308.208 299.656 307.728 299.656C307.216 299.656 306.8 299.763 306.48 299.976C306.17 300.179 305.941 300.445 305.792 300.776C305.642 301.096 305.546 301.421 305.504 301.752C305.461 302.083 305.44 302.429 305.44 302.792ZM311.328 298.632V306.312C311.328 306.781 311.296 307.224 311.232 307.64C311.178 308.067 311.029 308.504 310.784 308.952C310.549 309.4 310.16 309.773 309.616 310.072C309.072 310.371 308.346 310.52 307.44 310.52C307.13 310.52 306.81 310.488 306.48 310.424C306.16 310.371 305.84 310.253 305.52 310.072C305.2 309.901 304.922 309.645 304.688 309.304C304.453 308.973 304.304 308.547 304.24 308.024H305.648C305.712 308.333 305.824 308.579 305.984 308.76C306.144 308.952 306.32 309.085 306.512 309.16C306.714 309.245 306.896 309.299 307.056 309.32C307.226 309.341 307.386 309.352 307.536 309.352C308.09 309.352 308.533 309.256 308.864 309.064C309.194 308.883 309.434 308.643 309.584 308.344C309.733 308.056 309.824 307.757 309.856 307.448C309.898 307.149 309.92 306.803 309.92 306.408V306.056C309.706 306.419 309.408 306.707 309.024 306.92C308.65 307.133 308.197 307.24 307.664 307.24C306.992 307.24 306.416 307.101 305.936 306.824C305.456 306.536 305.072 306.163 304.784 305.704C304.506 305.245 304.304 304.744 304.176 304.2C304.048 303.656 303.984 303.112 303.984 302.568C303.984 301.352 304.293 300.355 304.912 299.576C305.541 298.787 306.394 298.392 307.472 298.392C307.834 298.392 308.154 298.44 308.432 298.536C308.709 298.632 308.944 298.76 309.136 298.92C309.338 299.069 309.498 299.219 309.616 299.368C309.733 299.507 309.861 299.672 310 299.864V298.632H311.328ZM320.09 301.304V307H318.682V301.528C318.682 300.909 318.56 300.445 318.314 300.136C318.08 299.816 317.648 299.656 317.018 299.656C316.709 299.656 316.416 299.704 316.138 299.8C315.872 299.896 315.626 300.056 315.402 300.28C315.178 300.493 315.002 300.781 314.874 301.144C314.746 301.496 314.682 301.928 314.682 302.44V307H313.274V295.512H314.682V299.752H314.714C315.002 299.368 315.333 299.048 315.706 298.792C316.09 298.525 316.576 298.392 317.162 298.392C317.525 298.392 317.872 298.435 318.202 298.52C318.544 298.605 318.858 298.76 319.146 298.984C319.434 299.197 319.664 299.496 319.834 299.88C320.005 300.264 320.09 300.739 320.09 301.304ZM325.237 299.8H323.893V305.24C323.893 305.528 323.973 305.709 324.133 305.784C324.304 305.859 324.506 305.896 324.741 305.896H325.237V307C325.12 307.011 324.906 307.032 324.597 307.064C324.373 307.096 324.234 307.112 324.181 307.112C323.541 307.112 323.098 306.957 322.853 306.648C322.608 306.328 322.485 305.885 322.485 305.32V299.8H321.349V298.632H322.485V296.296H323.893V298.632H325.237V299.8ZM332.73 301.016H331.37C331.359 300.845 331.333 300.685 331.29 300.536C331.247 300.387 331.157 300.243 331.018 300.104C330.89 299.955 330.687 299.837 330.41 299.752C330.143 299.656 329.802 299.608 329.386 299.608C329.247 299.608 329.087 299.624 328.906 299.656C328.725 299.677 328.543 299.731 328.362 299.816C328.181 299.901 328.026 300.024 327.898 300.184C327.781 300.344 327.722 300.547 327.722 300.792C327.722 301.112 327.823 301.341 328.026 301.48C328.239 301.619 328.645 301.763 329.242 301.912L330.65 302.264C331.514 302.477 332.122 302.755 332.474 303.096C332.826 303.437 333.002 303.896 333.002 304.472C333.002 305.315 332.693 305.987 332.074 306.488C331.455 306.989 330.661 307.24 329.69 307.24C328.911 307.24 328.277 307.144 327.786 306.952C327.306 306.76 326.943 306.515 326.698 306.216C326.463 305.907 326.303 305.597 326.218 305.288C326.143 304.979 326.101 304.653 326.09 304.312H327.45C327.471 304.536 327.503 304.739 327.546 304.92C327.599 305.091 327.701 305.267 327.85 305.448C328.01 305.619 328.239 305.757 328.538 305.864C328.837 305.971 329.215 306.024 329.674 306.024C330.218 306.024 330.671 305.912 331.034 305.688C331.407 305.464 331.594 305.133 331.594 304.696C331.594 304.376 331.471 304.136 331.226 303.976C330.991 303.816 330.559 303.656 329.93 303.496L328.298 303.096C327.679 302.947 327.199 302.712 326.858 302.392C326.527 302.061 326.362 301.619 326.362 301.064C326.362 300.616 326.447 300.227 326.618 299.896C326.789 299.555 327.023 299.267 327.322 299.032C327.898 298.605 328.634 298.392 329.53 298.392C330.223 298.392 330.789 298.499 331.226 298.712C331.663 298.925 331.989 299.181 332.202 299.48C332.415 299.779 332.554 300.067 332.618 300.344C332.693 300.611 332.73 300.835 332.73 301.016Z" fill="white"/>
<rect x="177" y="387" width="201" height="42" rx="21" fill="#A97D5D"/>
<path d="M221.053 413V402.924H223.138V406.766H227.075V402.924H229.167V413H227.075V408.502H223.138V413H221.053ZM233.966 406.957C233.515 406.957 233.164 407.098 232.913 407.381C232.667 407.663 232.512 408.046 232.448 408.529H235.477C235.445 408.014 235.287 407.625 235.005 407.36C234.727 407.091 234.381 406.957 233.966 406.957ZM233.966 405.351C234.586 405.351 235.144 405.467 235.641 405.699C236.137 405.932 236.548 406.299 236.871 406.8C237.163 407.242 237.352 407.755 237.438 408.338C237.489 408.68 237.509 409.172 237.5 409.814H232.4C232.428 410.562 232.662 411.086 233.104 411.387C233.373 411.574 233.697 411.667 234.075 411.667C234.476 411.667 234.802 411.553 235.053 411.325C235.189 411.202 235.31 411.031 235.415 410.812H237.404C237.354 411.255 237.124 411.703 236.714 412.159C236.076 412.884 235.183 413.246 234.034 413.246C233.086 413.246 232.25 412.941 231.525 412.33C230.801 411.719 230.438 410.726 230.438 409.35C230.438 408.06 230.764 407.071 231.416 406.383C232.072 405.695 232.922 405.351 233.966 405.351ZM242.928 409.377C242.805 409.454 242.679 409.518 242.552 409.568C242.429 409.614 242.258 409.657 242.039 409.698L241.602 409.78C241.191 409.853 240.897 409.942 240.72 410.047C240.419 410.225 240.269 410.5 240.269 410.874C240.269 411.207 240.36 411.448 240.542 411.599C240.729 411.744 240.954 411.817 241.219 411.817C241.638 411.817 242.023 411.694 242.374 411.448C242.729 411.202 242.914 410.753 242.928 410.102V409.377ZM241.745 408.468C242.105 408.422 242.363 408.365 242.518 408.297C242.796 408.178 242.935 407.994 242.935 407.743C242.935 407.438 242.827 407.228 242.613 407.114C242.404 406.996 242.094 406.937 241.684 406.937C241.223 406.937 240.897 407.05 240.706 407.278C240.569 407.447 240.478 407.675 240.433 407.962H238.553C238.594 407.31 238.776 406.775 239.1 406.355C239.615 405.699 240.499 405.371 241.752 405.371C242.568 405.371 243.292 405.533 243.926 405.856C244.559 406.18 244.876 406.791 244.876 407.688V411.106C244.876 411.343 244.881 411.631 244.89 411.968C244.903 412.223 244.942 412.396 245.006 412.487C245.07 412.578 245.165 412.654 245.293 412.713V413H243.174C243.115 412.85 243.074 412.708 243.051 412.576C243.028 412.444 243.01 412.294 242.996 412.125C242.727 412.417 242.417 412.665 242.066 412.87C241.647 413.112 241.173 413.232 240.645 413.232C239.97 413.232 239.412 413.041 238.97 412.658C238.532 412.271 238.313 411.724 238.313 411.018C238.313 410.102 238.667 409.438 239.373 409.028C239.76 408.805 240.33 408.646 241.082 408.55L241.745 408.468ZM248.602 413H246.653V402.924H248.602V413ZM249.743 407.005V405.617H250.782V403.539H252.71V405.617H253.92V407.005H252.71V410.942C252.71 411.248 252.749 411.439 252.826 411.517C252.904 411.59 253.141 411.626 253.537 411.626C253.596 411.626 253.658 411.626 253.722 411.626C253.79 411.621 253.856 411.617 253.92 411.612V413.068L252.997 413.103C252.076 413.134 251.448 412.975 251.11 412.624C250.892 412.401 250.782 412.057 250.782 411.592V407.005H249.743ZM259.279 405.357C259.74 405.357 260.157 405.437 260.53 405.597C260.909 405.756 261.218 406 261.46 406.328C261.665 406.606 261.79 406.893 261.836 407.189C261.882 407.481 261.904 407.96 261.904 408.625V413H259.915V408.468C259.915 408.067 259.847 407.743 259.71 407.497C259.532 407.151 259.195 406.978 258.698 406.978C258.183 406.978 257.791 407.151 257.522 407.497C257.258 407.839 257.126 408.329 257.126 408.967V413H255.185V402.958H257.126V406.52C257.409 406.087 257.734 405.786 258.104 405.617C258.477 405.444 258.869 405.357 259.279 405.357ZM267.476 410.341C267.476 409.735 267.626 409.215 267.927 408.782C268.228 408.349 268.72 407.921 269.403 407.497L269.615 407.367C269.324 407.039 269.098 406.704 268.938 406.362C268.779 406.021 268.699 405.665 268.699 405.296C268.699 404.562 268.945 403.99 269.438 403.58C269.93 403.165 270.568 402.958 271.352 402.958C272.067 402.958 272.657 403.17 273.122 403.594C273.591 404.013 273.826 404.551 273.826 405.207C273.826 405.799 273.685 406.28 273.402 406.649C273.124 407.019 272.714 407.36 272.172 407.675L273.601 409.438C273.765 409.201 273.89 408.944 273.977 408.666C274.068 408.388 274.116 408.094 274.12 407.784H275.85C275.822 408.395 275.676 409.012 275.412 409.637C275.266 409.988 275.029 410.375 274.701 410.799L276.533 413H274.168L273.471 412.146C273.133 412.46 272.819 412.692 272.527 412.843C272.008 413.112 271.409 413.246 270.729 413.246C269.709 413.246 268.911 412.945 268.337 412.344C267.763 411.742 267.476 411.075 267.476 410.341ZM270.49 405.228C270.49 405.41 270.554 405.601 270.682 405.802C270.764 405.934 270.941 406.169 271.215 406.506C271.488 406.314 271.684 406.153 271.803 406.021C272.031 405.774 272.145 405.508 272.145 405.221C272.145 405.011 272.076 404.824 271.939 404.66C271.803 404.496 271.595 404.414 271.317 404.414C271.144 404.414 270.982 404.462 270.832 404.558C270.604 404.699 270.49 404.922 270.49 405.228ZM269.417 410.279C269.417 410.612 269.551 410.917 269.82 411.195C270.094 411.473 270.442 411.612 270.866 411.612C271.185 411.612 271.486 411.539 271.769 411.394C272.056 411.243 272.288 411.077 272.466 410.895L270.62 408.611C270.132 408.935 269.809 409.22 269.649 409.466C269.494 409.712 269.417 409.983 269.417 410.279ZM283.321 409.89C283.385 410.35 283.51 410.694 283.697 410.922C284.039 411.337 284.625 411.544 285.454 411.544C285.951 411.544 286.354 411.489 286.664 411.38C287.252 411.17 287.546 410.781 287.546 410.211C287.546 409.878 287.4 409.621 287.108 409.438C286.817 409.261 286.359 409.104 285.734 408.967L284.668 408.728C283.62 408.491 282.895 408.233 282.494 407.955C281.815 407.49 281.476 406.763 281.476 405.774C281.476 404.872 281.804 404.122 282.46 403.525C283.116 402.928 284.08 402.63 285.352 402.63C286.413 402.63 287.318 402.912 288.065 403.478C288.817 404.038 289.212 404.854 289.248 405.925H287.225C287.188 405.319 286.924 404.888 286.432 404.633C286.104 404.464 285.696 404.38 285.208 404.38C284.666 404.38 284.233 404.489 283.909 404.708C283.586 404.927 283.424 405.232 283.424 405.624C283.424 405.984 283.583 406.253 283.902 406.431C284.107 406.549 284.545 406.688 285.215 406.848L286.951 407.265C287.712 407.447 288.286 407.691 288.674 407.996C289.275 408.47 289.576 409.156 289.576 410.054C289.576 410.974 289.223 411.74 288.517 412.351C287.815 412.957 286.821 413.26 285.536 413.26C284.224 413.26 283.191 412.961 282.439 412.364C281.688 411.763 281.312 410.938 281.312 409.89H283.321ZM295.086 409.377C294.963 409.454 294.838 409.518 294.71 409.568C294.587 409.614 294.416 409.657 294.197 409.698L293.76 409.78C293.35 409.853 293.056 409.942 292.878 410.047C292.577 410.225 292.427 410.5 292.427 410.874C292.427 411.207 292.518 411.448 292.7 411.599C292.887 411.744 293.113 411.817 293.377 411.817C293.796 411.817 294.181 411.694 294.532 411.448C294.888 411.202 295.072 410.753 295.086 410.102V409.377ZM293.903 408.468C294.263 408.422 294.521 408.365 294.676 408.297C294.954 408.178 295.093 407.994 295.093 407.743C295.093 407.438 294.986 407.228 294.771 407.114C294.562 406.996 294.252 406.937 293.842 406.937C293.382 406.937 293.056 407.05 292.864 407.278C292.728 407.447 292.636 407.675 292.591 407.962H290.711C290.752 407.31 290.934 406.775 291.258 406.355C291.773 405.699 292.657 405.371 293.91 405.371C294.726 405.371 295.451 405.533 296.084 405.856C296.717 406.18 297.034 406.791 297.034 407.688V411.106C297.034 411.343 297.039 411.631 297.048 411.968C297.062 412.223 297.1 412.396 297.164 412.487C297.228 412.578 297.324 412.654 297.451 412.713V413H295.332C295.273 412.85 295.232 412.708 295.209 412.576C295.186 412.444 295.168 412.294 295.154 412.125C294.885 412.417 294.576 412.665 294.225 412.87C293.805 413.112 293.331 413.232 292.803 413.232C292.128 413.232 291.57 413.041 291.128 412.658C290.69 412.271 290.472 411.724 290.472 411.018C290.472 410.102 290.825 409.438 291.531 409.028C291.919 408.805 292.488 408.646 293.24 408.55L293.903 408.468ZM301.519 402.821C301.642 402.821 301.753 402.826 301.854 402.835C301.954 402.84 302.09 402.849 302.264 402.862V404.448C302.154 404.435 301.97 404.425 301.71 404.421C301.455 404.412 301.277 404.469 301.177 404.592C301.081 404.71 301.033 404.842 301.033 404.988C301.033 405.134 301.033 405.344 301.033 405.617H302.312V406.991H301.033V413H299.092V406.991H298.005V405.617H299.071V405.139C299.071 404.341 299.206 403.792 299.475 403.491C299.757 403.045 300.438 402.821 301.519 402.821ZM306.372 406.957C305.921 406.957 305.57 407.098 305.319 407.381C305.073 407.663 304.918 408.046 304.854 408.529H307.883C307.851 408.014 307.694 407.625 307.411 407.36C307.133 407.091 306.787 406.957 306.372 406.957ZM306.372 405.351C306.992 405.351 307.55 405.467 308.047 405.699C308.544 405.932 308.954 406.299 309.277 406.8C309.569 407.242 309.758 407.755 309.845 408.338C309.895 408.68 309.915 409.172 309.906 409.814H304.807C304.834 410.562 305.069 411.086 305.511 411.387C305.78 411.574 306.103 411.667 306.481 411.667C306.882 411.667 307.208 411.553 307.459 411.325C307.596 411.202 307.716 411.031 307.821 410.812H309.811C309.76 411.255 309.53 411.703 309.12 412.159C308.482 412.884 307.589 413.246 306.44 413.246C305.493 413.246 304.656 412.941 303.932 412.33C303.207 411.719 302.845 410.726 302.845 409.35C302.845 408.06 303.171 407.071 303.822 406.383C304.479 405.695 305.328 405.351 306.372 405.351ZM310.46 407.005V405.617H311.499V403.539H313.427V405.617H314.637V407.005H313.427V410.942C313.427 411.248 313.465 411.439 313.543 411.517C313.62 411.59 313.857 411.626 314.254 411.626C314.313 411.626 314.375 411.626 314.438 411.626C314.507 411.621 314.573 411.617 314.637 411.612V413.068L313.714 413.103C312.793 413.134 312.164 412.975 311.827 412.624C311.608 412.401 311.499 412.057 311.499 411.592V407.005H310.46ZM316.188 414.429L316.435 414.442C316.626 414.451 316.808 414.445 316.981 414.422C317.155 414.399 317.3 414.347 317.419 414.265C317.533 414.187 317.638 414.025 317.733 413.779C317.834 413.533 317.875 413.383 317.856 413.328L315.122 405.549H317.289L318.916 411.045L320.454 405.549H322.525L319.969 412.877C319.477 414.29 319.087 415.165 318.8 415.502C318.513 415.844 317.938 416.015 317.077 416.015C316.904 416.015 316.765 416.012 316.66 416.008C316.555 416.008 316.398 416.001 316.188 415.987V414.429ZM329.97 409.192H332.526L331.269 405.228L329.97 409.192ZM330.1 402.924H332.479L336.047 413H333.764L333.114 410.929H329.402L328.705 413H326.504L330.1 402.924ZM339.164 413H337.216V402.924H339.164V413ZM344.011 406.957C343.56 406.957 343.209 407.098 342.958 407.381C342.712 407.663 342.557 408.046 342.493 408.529H345.521C345.49 408.014 345.332 407.625 345.05 407.36C344.772 407.091 344.425 406.957 344.011 406.957ZM344.011 405.351C344.631 405.351 345.189 405.467 345.686 405.699C346.182 405.932 346.592 406.299 346.916 406.8C347.208 407.242 347.397 407.755 347.483 408.338C347.534 408.68 347.554 409.172 347.545 409.814H342.445C342.473 410.562 342.707 411.086 343.149 411.387C343.418 411.574 343.742 411.667 344.12 411.667C344.521 411.667 344.847 411.553 345.098 411.325C345.234 411.202 345.355 411.031 345.46 410.812H347.449C347.399 411.255 347.169 411.703 346.759 412.159C346.121 412.884 345.228 413.246 344.079 413.246C343.131 413.246 342.295 412.941 341.57 412.33C340.846 411.719 340.483 410.726 340.483 409.35C340.483 408.06 340.809 407.071 341.461 406.383C342.117 405.695 342.967 405.351 344.011 405.351ZM352.911 405.371C352.948 405.371 352.977 405.373 353 405.378C353.027 405.378 353.084 405.38 353.171 405.385V407.381C353.048 407.367 352.938 407.358 352.843 407.354C352.747 407.349 352.67 407.347 352.61 407.347C351.826 407.347 351.3 407.602 351.031 408.112C350.881 408.399 350.806 408.841 350.806 409.438V413H348.844V405.549H350.703V406.848C351.004 406.351 351.266 406.011 351.489 405.829C351.854 405.524 352.328 405.371 352.911 405.371ZM353.554 407.005V405.617H354.593V403.539H356.521V405.617H357.73V407.005H356.521V410.942C356.521 411.248 356.559 411.439 356.637 411.517C356.714 411.59 356.951 411.626 357.348 411.626C357.407 411.626 357.468 411.626 357.532 411.626C357.601 411.621 357.667 411.617 357.73 411.612V413.068L356.808 413.103C355.887 413.134 355.258 412.975 354.921 412.624C354.702 412.401 354.593 412.057 354.593 411.592V407.005H353.554ZM360.499 410.621C360.54 410.967 360.629 411.214 360.766 411.359C361.007 411.619 361.454 411.749 362.105 411.749C362.488 411.749 362.791 411.692 363.015 411.578C363.243 411.464 363.356 411.293 363.356 411.065C363.356 410.847 363.265 410.68 363.083 410.566C362.901 410.452 362.224 410.257 361.053 409.979C360.21 409.769 359.615 409.507 359.269 409.192C358.922 408.882 358.749 408.436 358.749 407.853C358.749 407.164 359.018 406.574 359.556 406.082C360.098 405.585 360.859 405.337 361.839 405.337C362.769 405.337 363.525 405.524 364.108 405.897C364.696 406.267 365.034 406.907 365.12 407.818H363.172C363.145 407.568 363.074 407.369 362.96 407.224C362.746 406.959 362.381 406.827 361.866 406.827C361.442 406.827 361.139 406.893 360.957 407.025C360.779 407.158 360.69 407.312 360.69 407.49C360.69 407.714 360.786 407.875 360.978 407.976C361.169 408.08 361.846 408.26 363.008 408.516C363.783 408.698 364.364 408.974 364.751 409.343C365.134 409.716 365.325 410.184 365.325 410.744C365.325 411.482 365.049 412.086 364.498 412.556C363.951 413.021 363.104 413.253 361.955 413.253C360.784 413.253 359.918 413.007 359.357 412.515C358.801 412.018 358.523 411.387 358.523 410.621H360.499Z" fill="white"/>
<path d="M204.473 419.062C205.266 418.558 206.06 418.057 206.852 417.553C207.211 417.326 207.574 417.101 207.923 416.857C208.753 416.278 209.531 415.619 210.223 414.879C211.591 413.409 212.632 411.668 213.291 409.772C213.827 408.223 214.057 406.589 214.057 404.953V401.833C214.057 401.414 213.764 401.048 213.368 400.929C213.082 400.842 212.798 400.753 212.524 400.638C212.599 400.669 212.674 400.701 212.749 400.732C212.259 400.523 211.8 400.256 211.378 399.933L211.568 400.08C211.151 399.757 210.776 399.384 210.452 398.967L210.6 399.157C210.276 398.735 210.007 398.273 209.798 397.783C209.829 397.858 209.862 397.933 209.892 398.008C209.822 397.84 209.756 397.666 209.7 397.493C209.573 397.097 209.219 396.804 208.795 396.804H200.383C199.997 396.804 199.608 396.792 199.221 396.804H199.205C198.778 396.804 198.426 397.097 198.3 397.493C198.244 397.669 198.18 397.84 198.108 398.008C198.138 397.933 198.171 397.858 198.201 397.783C197.993 398.273 197.723 398.733 197.4 399.157L197.548 398.967C197.224 399.384 196.849 399.757 196.432 400.08L196.622 399.933C196.2 400.256 195.738 400.523 195.251 400.732C195.326 400.701 195.401 400.669 195.476 400.638C195.199 400.753 194.918 400.842 194.632 400.929C194.236 401.048 193.943 401.414 193.943 401.833V404.66C193.943 405.157 193.943 405.654 193.978 406.151C194.053 407.161 194.224 408.169 194.508 409.141C195.07 411.073 196.045 412.851 197.339 414.387C198.344 415.58 199.556 416.545 200.869 417.377L203.463 419.023C203.484 419.037 203.508 419.051 203.529 419.065C203.944 419.327 204.581 419.166 204.811 418.727C205.055 418.263 204.916 417.726 204.473 417.445C204.051 417.178 203.63 416.911 203.21 416.644C202.671 416.301 202.134 415.962 201.595 415.619C201.218 415.38 200.85 415.125 200.494 414.853L200.683 415.001C199.798 414.314 199.001 413.517 198.314 412.631L198.462 412.821C197.763 411.914 197.182 410.92 196.734 409.866C196.765 409.941 196.798 410.016 196.828 410.091C196.371 409.005 196.059 407.866 195.902 406.699C195.914 406.781 195.926 406.866 195.935 406.948C195.834 406.188 195.818 405.429 195.818 404.667V401.843C195.588 402.145 195.358 402.445 195.129 402.748C195.937 402.504 196.72 402.18 197.407 401.686C198.22 401.1 198.914 400.378 199.43 399.516C199.713 399.042 199.941 398.526 200.109 398.001C199.807 398.231 199.507 398.461 199.205 398.691H207.616C208.003 398.691 208.392 398.7 208.779 398.691H208.795C208.493 398.461 208.193 398.231 207.891 398.001C208.479 399.837 209.815 401.433 211.568 402.258C211.99 402.457 212.423 402.612 212.871 402.748C212.641 402.445 212.412 402.145 212.182 401.843V405.166C212.182 405.762 212.142 406.357 212.065 406.948C212.076 406.866 212.088 406.781 212.098 406.699C211.938 407.864 211.626 409.005 211.172 410.091C211.202 410.016 211.235 409.941 211.266 409.866C210.818 410.92 210.237 411.914 209.538 412.821L209.686 412.631C208.999 413.517 208.202 414.314 207.316 415.001L207.506 414.853C206.981 415.258 206.423 415.608 205.866 415.964C205.247 416.358 204.628 416.749 204.009 417.143C203.85 417.244 203.688 417.347 203.529 417.448C203.325 417.576 203.163 417.771 203.098 418.008C203.037 418.233 203.065 418.53 203.191 418.73C203.458 419.142 204.03 419.344 204.473 419.062Z" fill="white"/>
<path d="M199.223 407.951L201.63 410.358L201.972 410.7C202.331 411.059 202.94 411.059 203.299 410.7L205.158 408.841L208.099 405.9L208.776 405.223C209.123 404.876 209.149 404.238 208.776 403.896C208.401 403.552 207.82 403.526 207.45 403.896L205.591 405.755L202.65 408.696L201.972 409.373H203.299L200.892 406.966L200.55 406.624C200.203 406.277 199.565 406.252 199.223 406.624C198.879 406.999 198.853 407.578 199.223 407.951Z" fill="white"/>
<rect x="177" y="448" width="201" height="42" rx="21" fill="#A97D5D"/>
<path d="M256.74 468.13C256.74 467.606 256.601 467.232 256.323 467.009C256.05 466.785 255.665 466.674 255.168 466.674H253.206V469.641H255.168C255.665 469.641 256.05 469.52 256.323 469.278C256.601 469.037 256.74 468.654 256.74 468.13ZM258.825 468.116C258.825 469.306 258.524 470.146 257.923 470.639C257.321 471.131 256.462 471.377 255.346 471.377H253.206V475H251.114V464.924H255.503C256.515 464.924 257.321 465.184 257.923 465.703C258.524 466.223 258.825 467.027 258.825 468.116ZM263.187 468.957C262.735 468.957 262.384 469.098 262.134 469.381C261.888 469.663 261.733 470.046 261.669 470.529H264.697C264.665 470.014 264.508 469.625 264.226 469.36C263.948 469.091 263.601 468.957 263.187 468.957ZM263.187 467.351C263.806 467.351 264.365 467.467 264.861 467.699C265.358 467.932 265.768 468.299 266.092 468.8C266.383 469.242 266.573 469.755 266.659 470.338C266.709 470.68 266.73 471.172 266.721 471.814H261.621C261.648 472.562 261.883 473.086 262.325 473.387C262.594 473.574 262.918 473.667 263.296 473.667C263.697 473.667 264.023 473.553 264.273 473.325C264.41 473.202 264.531 473.031 264.636 472.812H266.625C266.575 473.255 266.345 473.703 265.935 474.159C265.297 474.884 264.403 475.246 263.255 475.246C262.307 475.246 261.471 474.941 260.746 474.33C260.021 473.719 259.659 472.726 259.659 471.35C259.659 470.06 259.985 469.071 260.637 468.383C261.293 467.695 262.143 467.351 263.187 467.351ZM272.087 467.371C272.123 467.371 272.153 467.373 272.176 467.378C272.203 467.378 272.26 467.38 272.347 467.385V469.381C272.224 469.367 272.114 469.358 272.019 469.354C271.923 469.349 271.845 469.347 271.786 469.347C271.002 469.347 270.476 469.602 270.207 470.112C270.057 470.399 269.981 470.841 269.981 471.438V475H268.02V467.549H269.879V468.848C270.18 468.351 270.442 468.011 270.665 467.829C271.03 467.524 271.504 467.371 272.087 467.371ZM281.821 467.385C282.149 467.385 282.473 467.449 282.792 467.576C283.111 467.704 283.4 467.927 283.66 468.246C283.87 468.506 284.011 468.825 284.084 469.203C284.13 469.454 284.152 469.821 284.152 470.304L284.139 475H282.143V470.256C282.143 469.973 282.097 469.741 282.006 469.559C281.833 469.212 281.514 469.039 281.049 469.039C280.511 469.039 280.14 469.262 279.935 469.709C279.83 469.946 279.777 470.231 279.777 470.563V475H277.815V470.563C277.815 470.121 277.77 469.8 277.679 469.6C277.515 469.24 277.193 469.06 276.715 469.06C276.159 469.06 275.785 469.24 275.594 469.6C275.489 469.805 275.437 470.11 275.437 470.516V475H273.461V467.562H275.354V468.649C275.596 468.262 275.824 467.986 276.038 467.822C276.416 467.531 276.906 467.385 277.508 467.385C278.077 467.385 278.538 467.51 278.889 467.761C279.171 467.993 279.385 468.292 279.531 468.656C279.786 468.219 280.103 467.897 280.481 467.692C280.882 467.487 281.329 467.385 281.821 467.385ZM287.953 466.66H285.978V464.862H287.953V466.66ZM285.978 467.549H287.953V475H285.978V467.549ZM291.364 472.621C291.405 472.967 291.494 473.214 291.631 473.359C291.872 473.619 292.319 473.749 292.971 473.749C293.354 473.749 293.657 473.692 293.88 473.578C294.108 473.464 294.222 473.293 294.222 473.065C294.222 472.847 294.131 472.68 293.948 472.566C293.766 472.452 293.089 472.257 291.918 471.979C291.075 471.769 290.48 471.507 290.134 471.192C289.787 470.882 289.614 470.436 289.614 469.853C289.614 469.164 289.883 468.574 290.421 468.082C290.963 467.585 291.724 467.337 292.704 467.337C293.634 467.337 294.39 467.524 294.974 467.897C295.562 468.267 295.899 468.907 295.985 469.818H294.037C294.01 469.568 293.939 469.369 293.825 469.224C293.611 468.959 293.246 468.827 292.731 468.827C292.308 468.827 292.005 468.893 291.822 469.025C291.645 469.158 291.556 469.312 291.556 469.49C291.556 469.714 291.651 469.875 291.843 469.976C292.034 470.08 292.711 470.26 293.873 470.516C294.648 470.698 295.229 470.974 295.616 471.343C295.999 471.716 296.19 472.184 296.19 472.744C296.19 473.482 295.915 474.086 295.363 474.556C294.816 475.021 293.969 475.253 292.82 475.253C291.649 475.253 290.783 475.007 290.223 474.515C289.667 474.018 289.389 473.387 289.389 472.621H291.364ZM299.157 472.621C299.198 472.967 299.287 473.214 299.424 473.359C299.665 473.619 300.112 473.749 300.764 473.749C301.146 473.749 301.45 473.692 301.673 473.578C301.901 473.464 302.015 473.293 302.015 473.065C302.015 472.847 301.924 472.68 301.741 472.566C301.559 472.452 300.882 472.257 299.711 471.979C298.868 471.769 298.273 471.507 297.927 471.192C297.58 470.882 297.407 470.436 297.407 469.853C297.407 469.164 297.676 468.574 298.214 468.082C298.756 467.585 299.517 467.337 300.497 467.337C301.427 467.337 302.183 467.524 302.767 467.897C303.354 468.267 303.692 468.907 303.778 469.818H301.83C301.803 469.568 301.732 469.369 301.618 469.224C301.404 468.959 301.039 468.827 300.524 468.827C300.101 468.827 299.798 468.893 299.615 469.025C299.438 469.158 299.349 469.312 299.349 469.49C299.349 469.714 299.444 469.875 299.636 469.976C299.827 470.08 300.504 470.26 301.666 470.516C302.441 470.698 303.022 470.974 303.409 471.343C303.792 471.716 303.983 472.184 303.983 472.744C303.983 473.482 303.708 474.086 303.156 474.556C302.609 475.021 301.762 475.253 300.613 475.253C299.442 475.253 298.576 475.007 298.016 474.515C297.46 474.018 297.182 473.387 297.182 472.621H299.157ZM307.436 466.66H305.46V464.862H307.436V466.66ZM305.46 467.549H307.436V475H305.46V467.549ZM312.672 473.626C313.242 473.626 313.679 473.423 313.984 473.018C314.29 472.612 314.442 472.035 314.442 471.288C314.442 470.541 314.29 469.966 313.984 469.565C313.679 469.16 313.242 468.957 312.672 468.957C312.102 468.957 311.662 469.16 311.353 469.565C311.047 469.966 310.895 470.541 310.895 471.288C310.895 472.035 311.047 472.612 311.353 473.018C311.662 473.423 312.102 473.626 312.672 473.626ZM316.486 471.288C316.486 472.382 316.172 473.318 315.543 474.098C314.914 474.872 313.959 475.26 312.679 475.26C311.398 475.26 310.443 474.872 309.814 474.098C309.186 473.318 308.871 472.382 308.871 471.288C308.871 470.213 309.186 469.281 309.814 468.492C310.443 467.704 311.398 467.31 312.679 467.31C313.959 467.31 314.914 467.704 315.543 468.492C316.172 469.281 316.486 470.213 316.486 471.288ZM322.017 467.371C322.787 467.371 323.416 467.574 323.903 467.979C324.396 468.381 324.642 469.048 324.642 469.982V475H322.646V470.468C322.646 470.076 322.593 469.775 322.488 469.565C322.297 469.183 321.932 468.991 321.395 468.991C320.734 468.991 320.28 469.271 320.034 469.832C319.907 470.128 319.843 470.507 319.843 470.967V475H317.901V467.562H319.781V468.649C320.032 468.267 320.269 467.991 320.492 467.822C320.893 467.521 321.401 467.371 322.017 467.371ZM327.964 472.621C328.005 472.967 328.094 473.214 328.23 473.359C328.472 473.619 328.919 473.749 329.57 473.749C329.953 473.749 330.256 473.692 330.479 473.578C330.707 473.464 330.821 473.293 330.821 473.065C330.821 472.847 330.73 472.68 330.548 472.566C330.366 472.452 329.689 472.257 328.518 471.979C327.674 471.769 327.08 471.507 326.733 471.192C326.387 470.882 326.214 470.436 326.214 469.853C326.214 469.164 326.483 468.574 327.021 468.082C327.563 467.585 328.324 467.337 329.304 467.337C330.233 467.337 330.99 467.524 331.573 467.897C332.161 468.267 332.498 468.907 332.585 469.818H330.637C330.609 469.568 330.539 469.369 330.425 469.224C330.211 468.959 329.846 468.827 329.331 468.827C328.907 468.827 328.604 468.893 328.422 469.025C328.244 469.158 328.155 469.312 328.155 469.49C328.155 469.714 328.251 469.875 328.442 469.976C328.634 470.08 329.311 470.26 330.473 470.516C331.247 470.698 331.828 470.974 332.216 471.343C332.599 471.716 332.79 472.184 332.79 472.744C332.79 473.482 332.514 474.086 331.963 474.556C331.416 475.021 330.568 475.253 329.42 475.253C328.249 475.253 327.383 475.007 326.822 474.515C326.266 474.018 325.988 473.387 325.988 472.621H327.964Z" fill="white"/>
<path d="M236 470C235.696 469.996 235.397 470.086 235.145 470.257C234.894 470.428 234.7 470.672 234.591 470.957C234.482 471.241 234.463 471.552 234.536 471.848C234.609 472.143 234.771 472.409 235 472.61V474C235 474.265 235.105 474.52 235.293 474.707C235.48 474.895 235.735 475 236 475C236.265 475 236.52 474.895 236.707 474.707C236.895 474.52 237 474.265 237 474V472.61C237.229 472.409 237.391 472.143 237.464 471.848C237.537 471.552 237.518 471.241 237.409 470.957C237.3 470.672 237.106 470.428 236.855 470.257C236.603 470.086 236.304 469.996 236 470ZM241 466V464C241 462.674 240.473 461.402 239.536 460.464C238.598 459.527 237.326 459 236 459C234.674 459 233.402 459.527 232.464 460.464C231.527 461.402 231 462.674 231 464V466C230.204 466 229.441 466.316 228.879 466.879C228.316 467.441 228 468.204 228 469V476C228 476.796 228.316 477.559 228.879 478.121C229.441 478.684 230.204 479 231 479H241C241.796 479 242.559 478.684 243.121 478.121C243.684 477.559 244 476.796 244 476V469C244 468.204 243.684 467.441 243.121 466.879C242.559 466.316 241.796 466 241 466ZM233 464C233 463.204 233.316 462.441 233.879 461.879C234.441 461.316 235.204 461 236 461C236.796 461 237.559 461.316 238.121 461.879C238.684 462.441 239 463.204 239 464V466H233V464ZM242 476C242 476.265 241.895 476.52 241.707 476.707C241.52 476.895 241.265 477 241 477H231C230.735 477 230.48 476.895 230.293 476.707C230.105 476.52 230 476.265 230 476V469C230 468.735 230.105 468.48 230.293 468.293C230.48 468.105 230.735 468 231 468H241C241.265 468 241.52 468.105 241.707 468.293C241.895 468.48 242 468.735 242 469V476Z" fill="white"/>
<defs>
<filter id="filter0_d_54646_63" x="112.358" y="0.78833" width="331.087" height="574.635" filterUnits="userSpaceOnUse" color-interpolation-filters="sRGB">
<feFlood flood-opacity="0" result="BackgroundImageFix"/>
<feColorMatrix in="SourceAlpha" type="matrix" values="0 0 0 0 0 0 0 0 0 0 0 0 0 0 0 0 0 0 127 0" result="hardAlpha"/>
<feOffset/>
<feGaussianBlur stdDeviation="25"/>
<feComposite in2="hardAlpha" operator="out"/>
<feColorMatrix type="matrix" values="0 0 0 0 0 0 0 0 0 0 0 0 0 0 0 0 0 0 0.35 0"/>
<feBlend mode="normal" in2="BackgroundImageFix" result="effect1_dropShadow_54646_63"/>
<feBlend mode="normal" in="SourceGraphic" in2="effect1_dropShadow_54646_63" result="shape"/>
</filter>
<linearGradient id="paint0_linear_54646_63" x1="278" y1="11" x2="278" y2="567" gradientUnits="userSpaceOnUse">
<stop stop-color="#5C755E"/>
<stop offset="1" stop-color="#ACDBB0" stop-opacity="0"/>
</linearGradient>
</defs>
</svg>
