<svg width="58" height="58" viewBox="0 0 58 58" fill="none" xmlns="http://www.w3.org/2000/svg">
<circle cx="28.9995" cy="29" r="29" fill="white"/>
<path d="M40.1594 30.5C39.8294 30.5 39.4844 30.395 39.1544 30.32C38.4861 30.1728 37.8294 29.9773 37.1894 29.735C36.4935 29.4819 35.7286 29.495 35.0419 29.772C34.3551 30.0489 33.795 30.57 33.4694 31.235L33.1394 31.91C31.6784 31.0973 30.3359 30.0879 29.1494 28.91C27.9716 27.7236 26.9622 26.381 26.1494 24.92L26.7794 24.5C27.4445 24.1744 27.9656 23.6143 28.2425 22.9276C28.5194 22.2408 28.5326 21.4759 28.2794 20.78C28.0413 20.1387 27.8458 19.4822 27.6944 18.815C27.6194 18.485 27.5594 18.14 27.5144 17.795C27.3323 16.7385 26.7789 15.7817 25.9539 15.0969C25.1288 14.4122 24.0865 14.0445 23.0144 14.06H18.5144C17.868 14.054 17.2278 14.1873 16.6375 14.4508C16.0472 14.7144 15.5206 15.1021 15.0936 15.5875C14.6665 16.0728 14.3491 16.6445 14.1629 17.2636C13.9767 17.8827 13.926 18.5346 14.0144 19.175C14.8135 25.4591 17.6835 31.2979 22.1709 35.769C26.6583 40.2401 32.5075 43.0888 38.7944 43.865H39.3644C40.4705 43.8667 41.5385 43.4608 42.3644 42.725C42.839 42.3006 43.218 41.7803 43.4766 41.1985C43.7352 40.6167 43.8674 39.9867 43.8644 39.35V34.85C43.846 33.8081 43.4666 32.8049 42.7909 32.0115C42.1152 31.2182 41.1851 30.684 40.1594 30.5ZM40.9094 39.5C40.9092 39.713 40.8635 39.9235 40.7756 40.1175C40.6877 40.3115 40.5594 40.4845 40.3994 40.625C40.2318 40.7698 40.0358 40.8779 39.824 40.9424C39.6122 41.007 39.3893 41.0266 39.1694 41C33.5518 40.2798 28.3338 37.7098 24.3385 33.6955C20.3432 29.6812 17.798 24.4511 17.1044 18.83C17.0805 18.6103 17.1015 18.388 17.1659 18.1766C17.2304 17.9652 17.337 17.7691 17.4794 17.6C17.62 17.44 17.793 17.3118 17.987 17.2239C18.181 17.1359 18.3914 17.0903 18.6044 17.09H23.1044C23.4532 17.0823 23.7939 17.1964 24.0676 17.4127C24.3414 17.6289 24.5312 17.9339 24.6044 18.275C24.6644 18.685 24.7394 19.09 24.8294 19.49C25.0027 20.2808 25.2333 21.0578 25.5194 21.815L23.4194 22.79C23.2399 22.8724 23.0784 22.9895 22.9442 23.1344C22.81 23.2794 22.7057 23.4495 22.6374 23.6348C22.5691 23.8202 22.5381 24.0172 22.5462 24.2146C22.5543 24.412 22.6012 24.6059 22.6844 24.785C24.8432 29.4092 28.5603 33.1262 33.1844 35.285C33.5496 35.4351 33.9592 35.4351 34.3244 35.285C34.5115 35.2181 34.6834 35.1147 34.8302 34.9808C34.9769 34.8469 35.0957 34.6852 35.1794 34.505L36.1094 32.405C36.8849 32.6824 37.6763 32.9128 38.4794 33.095C38.8794 33.185 39.2844 33.26 39.6944 33.32C40.0356 33.3932 40.3405 33.583 40.5568 33.8568C40.7731 34.1306 40.8872 34.4712 40.8794 34.82L40.9094 39.5Z" fill="#5C755E"/>
</svg>
