<svg width="24" height="24" viewBox="0 0 24 24" fill="none" xmlns="http://www.w3.org/2000/svg">
<path d="M14.2223 15.4769C12.4737 16.863 10.2566 17.5321 8.02635 17.3469C5.79608 17.1617 3.72193 16.1362 2.22987 14.4811C0.737815 12.8259 -0.0588851 10.6666 0.00339449 8.44682C0.0656741 6.227 0.982206 4.11509 2.56476 2.54484C4.14731 0.974577 6.27575 0.065164 8.51295 0.00336812C10.7501 -0.0584278 12.9263 0.732084 14.5944 2.21255C16.2626 3.69302 17.2961 5.75106 17.4827 7.96401C17.6694 10.177 16.995 12.3768 15.598 14.1118L23.0665 21.5203C23.2492 21.7016 23.3518 21.9474 23.3518 22.2038C23.3518 22.4602 23.2492 22.706 23.0665 22.8873C22.8838 23.0686 22.636 23.1704 22.3776 23.1704C22.1192 23.1704 21.8714 23.0686 21.6888 22.8873L14.2242 15.4769H14.2223ZM15.5669 8.68819C15.5669 7.80074 15.3907 6.92198 15.0485 6.10209C14.7062 5.28219 14.2045 4.53722 13.5721 3.9097C12.9397 3.28218 12.1889 2.7844 11.3625 2.44479C10.5362 2.10518 9.6506 1.93039 8.7562 1.93039C7.86181 1.93039 6.97617 2.10518 6.14986 2.44479C5.32354 2.7844 4.57274 3.28218 3.94031 3.9097C3.30787 4.53722 2.8062 5.28219 2.46393 6.10209C2.12166 6.92198 1.9455 7.80074 1.9455 8.68819C1.9455 10.4805 2.66305 12.1993 3.94031 13.4667C5.21756 14.734 6.94989 15.446 8.7562 15.446C10.5625 15.446 12.2948 14.734 13.5721 13.4667C14.8493 12.1993 15.5669 10.4805 15.5669 8.68819Z" fill="#212121"/>
</svg>
