<svg width="308" height="22" viewBox="0 0 308 22" fill="none" xmlns="http://www.w3.org/2000/svg">
<path d="M294.724 6.44831L299.276 11L294.724 15.5518" stroke="#5C755E" stroke-width="2" stroke-miterlimit="10" stroke-linecap="round" stroke-linejoin="round"/>
<path d="M2.96094 12.4453C3.03385 12.9714 3.17708 13.3646 3.39062 13.625C3.78125 14.099 4.45052 14.3359 5.39844 14.3359C5.96615 14.3359 6.42708 14.2734 6.78125 14.1484C7.45312 13.9089 7.78906 13.4635 7.78906 12.8125C7.78906 12.4323 7.6224 12.138 7.28906 11.9297C6.95573 11.7266 6.43229 11.5469 5.71875 11.3906L4.5 11.1172C3.30208 10.8464 2.47396 10.5521 2.01562 10.2344C1.23958 9.70312 0.851562 8.8724 0.851562 7.74219C0.851562 6.71094 1.22656 5.85417 1.97656 5.17188C2.72656 4.48958 3.82812 4.14844 5.28125 4.14844C6.49479 4.14844 7.52865 4.47135 8.38281 5.11719C9.24219 5.75781 9.69271 6.6901 9.73438 7.91406H7.42188C7.38021 7.22135 7.07812 6.72917 6.51562 6.4375C6.14062 6.24479 5.67448 6.14844 5.11719 6.14844C4.4974 6.14844 4.0026 6.27344 3.63281 6.52344C3.26302 6.77344 3.07812 7.1224 3.07812 7.57031C3.07812 7.98177 3.26042 8.28906 3.625 8.49219C3.85938 8.6276 4.35938 8.78646 5.125 8.96875L7.10938 9.44531C7.97917 9.65365 8.63542 9.93229 9.07812 10.2812C9.76562 10.8229 10.1094 11.6068 10.1094 12.6328C10.1094 13.6849 9.70573 14.5599 8.89844 15.2578C8.09635 15.9505 6.96094 16.2969 5.49219 16.2969C3.99219 16.2969 2.8125 15.9557 1.95312 15.2734C1.09375 14.5859 0.664062 13.6432 0.664062 12.4453H2.96094ZM15.0703 9.09375C14.5547 9.09375 14.1536 9.25521 13.8672 9.57812C13.5859 9.90104 13.4089 10.3385 13.3359 10.8906H16.7969C16.7604 10.3021 16.5807 9.85677 16.2578 9.55469C15.9401 9.2474 15.5443 9.09375 15.0703 9.09375ZM15.0703 7.25781C15.7786 7.25781 16.4167 7.39062 16.9844 7.65625C17.5521 7.92188 18.0208 8.34115 18.3906 8.91406C18.724 9.41927 18.9401 10.0052 19.0391 10.6719C19.0964 11.0625 19.1198 11.625 19.1094 12.3594H13.2812C13.3125 13.2135 13.5807 13.8125 14.0859 14.1562C14.3932 14.3698 14.763 14.4766 15.1953 14.4766C15.6536 14.4766 16.026 14.3464 16.3125 14.0859C16.4688 13.9453 16.6068 13.75 16.7266 13.5H19C18.9427 14.0052 18.6797 14.5182 18.2109 15.0391C17.4818 15.8672 16.4609 16.2812 15.1484 16.2812C14.0651 16.2812 13.1094 15.9323 12.2812 15.2344C11.4531 14.5365 11.0391 13.401 11.0391 11.8281C11.0391 10.3542 11.4115 9.22396 12.1562 8.4375C12.9062 7.65104 13.8776 7.25781 15.0703 7.25781ZM23.9766 9.09375C23.4609 9.09375 23.0599 9.25521 22.7734 9.57812C22.4922 9.90104 22.3151 10.3385 22.2422 10.8906H25.7031C25.6667 10.3021 25.487 9.85677 25.1641 9.55469C24.8464 9.2474 24.4505 9.09375 23.9766 9.09375ZM23.9766 7.25781C24.6849 7.25781 25.3229 7.39062 25.8906 7.65625C26.4583 7.92188 26.9271 8.34115 27.2969 8.91406C27.6302 9.41927 27.8464 10.0052 27.9453 10.6719C28.0026 11.0625 28.026 11.625 28.0156 12.3594H22.1875C22.2188 13.2135 22.487 13.8125 22.9922 14.1562C23.2995 14.3698 23.6693 14.4766 24.1016 14.4766C24.5599 14.4766 24.9323 14.3464 25.2188 14.0859C25.375 13.9453 25.513 13.75 25.6328 13.5H27.9062C27.849 14.0052 27.5859 14.5182 27.1172 15.0391C26.388 15.8672 25.3672 16.2812 24.0547 16.2812C22.9714 16.2812 22.0156 15.9323 21.1875 15.2344C20.3594 14.5365 19.9453 13.401 19.9453 11.8281C19.9453 10.3542 20.3177 9.22396 21.0625 8.4375C21.8125 7.65104 22.7839 7.25781 23.9766 7.25781ZM35.8984 12.4453C35.9714 12.9714 36.1146 13.3646 36.3281 13.625C36.7188 14.099 37.388 14.3359 38.3359 14.3359C38.9036 14.3359 39.3646 14.2734 39.7188 14.1484C40.3906 13.9089 40.7266 13.4635 40.7266 12.8125C40.7266 12.4323 40.5599 12.138 40.2266 11.9297C39.8932 11.7266 39.3698 11.5469 38.6562 11.3906L37.4375 11.1172C36.2396 10.8464 35.4115 10.5521 34.9531 10.2344C34.1771 9.70312 33.7891 8.8724 33.7891 7.74219C33.7891 6.71094 34.1641 5.85417 34.9141 5.17188C35.6641 4.48958 36.7656 4.14844 38.2188 4.14844C39.4323 4.14844 40.4661 4.47135 41.3203 5.11719C42.1797 5.75781 42.6302 6.6901 42.6719 7.91406H40.3594C40.3177 7.22135 40.0156 6.72917 39.4531 6.4375C39.0781 6.24479 38.612 6.14844 38.0547 6.14844C37.4349 6.14844 36.9401 6.27344 36.5703 6.52344C36.2005 6.77344 36.0156 7.1224 36.0156 7.57031C36.0156 7.98177 36.1979 8.28906 36.5625 8.49219C36.7969 8.6276 37.2969 8.78646 38.0625 8.96875L40.0469 9.44531C40.9167 9.65365 41.5729 9.93229 42.0156 10.2812C42.7031 10.8229 43.0469 11.6068 43.0469 12.6328C43.0469 13.6849 42.6432 14.5599 41.8359 15.2578C41.0339 15.9505 39.8984 16.2969 38.4297 16.2969C36.9297 16.2969 35.75 15.9557 34.8906 15.2734C34.0312 14.5859 33.6016 13.6432 33.6016 12.4453H35.8984ZM52.4609 4.48438H55.9219V16H53.6797V8.21094C53.6797 7.98698 53.6823 7.67448 53.6875 7.27344C53.6927 6.86719 53.6953 6.55469 53.6953 6.33594L51.5156 16H49.1797L47.0156 6.33594C47.0156 6.55469 47.0182 6.86719 47.0234 7.27344C47.0286 7.67448 47.0312 7.98698 47.0312 8.21094V16H44.7891V4.48438H48.2891L50.3828 13.5391L52.4609 4.48438ZM61.3047 11.6484H64.2266L62.7891 7.11719L61.3047 11.6484ZM61.4531 4.48438H64.1719L68.25 16H65.6406L64.8984 13.6328H60.6562L59.8594 16H57.3438L61.4531 4.48438ZM72.125 6.48438V9.57812H74.8516C75.3932 9.57812 75.7995 9.51562 76.0703 9.39062C76.5495 9.17188 76.7891 8.73958 76.7891 8.09375C76.7891 7.39583 76.5573 6.92708 76.0938 6.6875C75.8333 6.55208 75.4427 6.48438 74.9219 6.48438H72.125ZM75.4219 4.48438C76.2292 4.5 76.849 4.59896 77.2812 4.78125C77.7188 4.96354 78.0885 5.23177 78.3906 5.58594C78.6406 5.8776 78.8385 6.20052 78.9844 6.55469C79.1302 6.90885 79.2031 7.3125 79.2031 7.76562C79.2031 8.3125 79.0651 8.85156 78.7891 9.38281C78.513 9.90885 78.0573 10.2812 77.4219 10.5C77.9531 10.7135 78.3281 11.0182 78.5469 11.4141C78.7708 11.8047 78.8828 12.4036 78.8828 13.2109V13.9844C78.8828 14.5104 78.9036 14.8672 78.9453 15.0547C79.0078 15.3516 79.1536 15.5703 79.3828 15.7109V16H76.7344C76.6615 15.7448 76.6094 15.5391 76.5781 15.3828C76.5156 15.0599 76.4818 14.7292 76.4766 14.3906L76.4609 13.3203C76.4505 12.5859 76.3151 12.0964 76.0547 11.8516C75.7995 11.6068 75.3177 11.4844 74.6094 11.4844H72.125V16H69.7734V4.48438H75.4219ZM89.6484 4.48438V6.52344H86.2031V16H83.7812V6.52344H80.3203V4.48438H89.6484ZM90.9141 8.09375C91.4245 7.93229 91.776 7.65885 91.9688 7.27344C92.0729 7.04427 92.1172 6.8125 92.1016 6.57812H90.875V4.52344H93.1016V6.17188C93.1016 6.95833 92.9089 7.57812 92.5234 8.03125C92.1432 8.48438 91.6068 8.77865 90.9141 8.91406V8.09375ZM96.4766 13.2812C96.5234 13.6771 96.625 13.9583 96.7812 14.125C97.0573 14.4219 97.5677 14.5703 98.3125 14.5703C98.75 14.5703 99.0964 14.5052 99.3516 14.375C99.612 14.2448 99.7422 14.0495 99.7422 13.7891C99.7422 13.5391 99.638 13.349 99.4297 13.2188C99.2214 13.0885 98.4479 12.8646 97.1094 12.5469C96.1458 12.3073 95.4661 12.0078 95.0703 11.6484C94.6745 11.2943 94.4766 10.7839 94.4766 10.1172C94.4766 9.33073 94.7839 8.65625 95.3984 8.09375C96.0182 7.52604 96.888 7.24219 98.0078 7.24219C99.0703 7.24219 99.9349 7.45573 100.602 7.88281C101.273 8.30469 101.659 9.03646 101.758 10.0781H99.5312C99.5 9.79167 99.4193 9.5651 99.2891 9.39844C99.0443 9.09635 98.6276 8.94531 98.0391 8.94531C97.5547 8.94531 97.2083 9.02083 97 9.17188C96.7969 9.32292 96.6953 9.5 96.6953 9.70312C96.6953 9.95833 96.8047 10.1432 97.0234 10.2578C97.2422 10.3776 98.0156 10.5833 99.3438 10.875C100.229 11.0833 100.893 11.3984 101.336 11.8203C101.773 12.2474 101.992 12.7812 101.992 13.4219C101.992 14.2656 101.677 14.9557 101.047 15.4922C100.422 16.0234 99.4531 16.2891 98.1406 16.2891C96.8021 16.2891 95.8125 16.0078 95.1719 15.4453C94.5365 14.8776 94.2188 14.1562 94.2188 13.2812H96.4766ZM114.766 8.14844C114.766 7.54948 114.607 7.1224 114.289 6.86719C113.977 6.61198 113.536 6.48438 112.969 6.48438H110.727V9.875H112.969C113.536 9.875 113.977 9.73698 114.289 9.46094C114.607 9.1849 114.766 8.7474 114.766 8.14844ZM117.148 8.13281C117.148 9.49219 116.805 10.4531 116.117 11.0156C115.43 11.5781 114.448 11.8594 113.172 11.8594H110.727V16H108.336V4.48438H113.352C114.508 4.48438 115.43 4.78125 116.117 5.375C116.805 5.96875 117.148 6.88802 117.148 8.13281ZM123.398 7.28125C123.44 7.28125 123.474 7.28385 123.5 7.28906C123.531 7.28906 123.596 7.29167 123.695 7.29688V9.57812C123.555 9.5625 123.43 9.55208 123.32 9.54688C123.211 9.54167 123.122 9.53906 123.055 9.53906C122.159 9.53906 121.557 9.83073 121.25 10.4141C121.078 10.7422 120.992 11.2474 120.992 11.9297V16H118.75V7.48438H120.875V8.96875C121.219 8.40104 121.518 8.01302 121.773 7.80469C122.19 7.45573 122.732 7.28125 123.398 7.28125ZM128.367 9.09375C127.852 9.09375 127.451 9.25521 127.164 9.57812C126.883 9.90104 126.706 10.3385 126.633 10.8906H130.094C130.057 10.3021 129.878 9.85677 129.555 9.55469C129.237 9.2474 128.841 9.09375 128.367 9.09375ZM128.367 7.25781C129.076 7.25781 129.714 7.39062 130.281 7.65625C130.849 7.92188 131.318 8.34115 131.688 8.91406C132.021 9.41927 132.237 10.0052 132.336 10.6719C132.393 11.0625 132.417 11.625 132.406 12.3594H126.578C126.609 13.2135 126.878 13.8125 127.383 14.1562C127.69 14.3698 128.06 14.4766 128.492 14.4766C128.951 14.4766 129.323 14.3464 129.609 14.0859C129.766 13.9453 129.904 13.75 130.023 13.5H132.297C132.24 14.0052 131.977 14.5182 131.508 15.0391C130.779 15.8672 129.758 16.2812 128.445 16.2812C127.362 16.2812 126.406 15.9323 125.578 15.2344C124.75 14.5365 124.336 13.401 124.336 11.8281C124.336 10.3542 124.708 9.22396 125.453 8.4375C126.203 7.65104 127.174 7.25781 128.367 7.25781ZM137.055 7.28125C137.57 7.28125 138.029 7.39583 138.43 7.625C138.831 7.84896 139.156 8.16146 139.406 8.5625V4.5H141.664V16H139.5V14.8203C139.182 15.3255 138.82 15.6927 138.414 15.9219C138.008 16.151 137.503 16.2656 136.898 16.2656C135.904 16.2656 135.065 15.8646 134.383 15.0625C133.706 14.2552 133.367 13.2214 133.367 11.9609C133.367 10.5078 133.701 9.36458 134.367 8.53125C135.039 7.69792 135.935 7.28125 137.055 7.28125ZM137.539 14.3906C138.169 14.3906 138.648 14.1562 138.977 13.6875C139.305 13.2188 139.469 12.612 139.469 11.8672C139.469 10.8255 139.206 10.0807 138.68 9.63281C138.357 9.36198 137.982 9.22656 137.555 9.22656C136.904 9.22656 136.424 9.47396 136.117 9.96875C135.815 10.4583 135.664 11.0677 135.664 11.7969C135.664 12.5833 135.818 13.2135 136.125 13.6875C136.438 14.1562 136.909 14.3906 137.539 14.3906ZM145.984 6.46875H143.727V4.41406H145.984V6.46875ZM143.727 7.48438H145.984V16H143.727V7.48438ZM153.234 10.5391C153.193 10.2214 153.086 9.9349 152.914 9.67969C152.664 9.33594 152.276 9.16406 151.75 9.16406C151 9.16406 150.487 9.53646 150.211 10.2812C150.065 10.6771 149.992 11.2031 149.992 11.8594C149.992 12.4844 150.065 12.987 150.211 13.3672C150.477 14.0755 150.977 14.4297 151.711 14.4297C152.232 14.4297 152.602 14.2891 152.82 14.0078C153.039 13.7266 153.172 13.362 153.219 12.9141H155.492C155.44 13.5911 155.195 14.2318 154.758 14.8359C154.06 15.8099 153.026 16.2969 151.656 16.2969C150.286 16.2969 149.279 15.8906 148.633 15.0781C147.987 14.2656 147.664 13.2109 147.664 11.9141C147.664 10.4505 148.021 9.3125 148.734 8.5C149.448 7.6875 150.432 7.28125 151.688 7.28125C152.755 7.28125 153.628 7.52083 154.305 8C154.987 8.47917 155.391 9.32552 155.516 10.5391H153.234ZM156.18 9.14844V7.5625H157.367V5.1875H159.57V7.5625H160.953V9.14844H159.57V13.6484C159.57 13.9974 159.615 14.2161 159.703 14.3047C159.792 14.388 160.062 14.4297 160.516 14.4297C160.583 14.4297 160.654 14.4297 160.727 14.4297C160.805 14.4245 160.88 14.4193 160.953 14.4141V16.0781L159.898 16.1172C158.846 16.1536 158.128 15.9714 157.742 15.5703C157.492 15.3151 157.367 14.9219 157.367 14.3906V9.14844H156.18ZM164.672 6.46875H162.414V4.41406H164.672V6.46875ZM162.414 7.48438H164.672V16H162.414V7.48438ZM172.086 7.48438H174.477L171.406 16H169.055L166 7.48438H168.5L170.273 13.7656L172.086 7.48438ZM179.102 9.09375C178.586 9.09375 178.185 9.25521 177.898 9.57812C177.617 9.90104 177.44 10.3385 177.367 10.8906H180.828C180.792 10.3021 180.612 9.85677 180.289 9.55469C179.971 9.2474 179.576 9.09375 179.102 9.09375ZM179.102 7.25781C179.81 7.25781 180.448 7.39062 181.016 7.65625C181.583 7.92188 182.052 8.34115 182.422 8.91406C182.755 9.41927 182.971 10.0052 183.07 10.6719C183.128 11.0625 183.151 11.625 183.141 12.3594H177.312C177.344 13.2135 177.612 13.8125 178.117 14.1562C178.424 14.3698 178.794 14.4766 179.227 14.4766C179.685 14.4766 180.057 14.3464 180.344 14.0859C180.5 13.9453 180.638 13.75 180.758 13.5H183.031C182.974 14.0052 182.711 14.5182 182.242 15.0391C181.513 15.8672 180.492 16.2812 179.18 16.2812C178.096 16.2812 177.141 15.9323 176.312 15.2344C175.484 14.5365 175.07 13.401 175.07 11.8281C175.07 10.3542 175.443 9.22396 176.188 8.4375C176.938 7.65104 177.909 7.25781 179.102 7.25781ZM191.023 12.4453C191.096 12.9714 191.24 13.3646 191.453 13.625C191.844 14.099 192.513 14.3359 193.461 14.3359C194.029 14.3359 194.49 14.2734 194.844 14.1484C195.516 13.9089 195.852 13.4635 195.852 12.8125C195.852 12.4323 195.685 12.138 195.352 11.9297C195.018 11.7266 194.495 11.5469 193.781 11.3906L192.562 11.1172C191.365 10.8464 190.536 10.5521 190.078 10.2344C189.302 9.70312 188.914 8.8724 188.914 7.74219C188.914 6.71094 189.289 5.85417 190.039 5.17188C190.789 4.48958 191.891 4.14844 193.344 4.14844C194.557 4.14844 195.591 4.47135 196.445 5.11719C197.305 5.75781 197.755 6.6901 197.797 7.91406H195.484C195.443 7.22135 195.141 6.72917 194.578 6.4375C194.203 6.24479 193.737 6.14844 193.18 6.14844C192.56 6.14844 192.065 6.27344 191.695 6.52344C191.326 6.77344 191.141 7.1224 191.141 7.57031C191.141 7.98177 191.323 8.28906 191.688 8.49219C191.922 8.6276 192.422 8.78646 193.188 8.96875L195.172 9.44531C196.042 9.65365 196.698 9.93229 197.141 10.2812C197.828 10.8229 198.172 11.6068 198.172 12.6328C198.172 13.6849 197.768 14.5599 196.961 15.2578C196.159 15.9505 195.023 16.2969 193.555 16.2969C192.055 16.2969 190.875 15.9557 190.016 15.2734C189.156 14.5859 188.727 13.6432 188.727 12.4453H191.023ZM201.992 7.48438V12.6172C201.992 13.1016 202.049 13.4661 202.164 13.7109C202.367 14.1432 202.766 14.3594 203.359 14.3594C204.12 14.3594 204.641 14.0521 204.922 13.4375C205.068 13.1042 205.141 12.6641 205.141 12.1172V7.48438H207.398V16H205.234V14.7969C205.214 14.8229 205.161 14.901 205.078 15.0312C204.995 15.1615 204.896 15.276 204.781 15.375C204.432 15.6875 204.094 15.901 203.766 16.0156C203.443 16.1302 203.062 16.1875 202.625 16.1875C201.365 16.1875 200.516 15.7344 200.078 14.8281C199.833 14.3281 199.711 13.5911 199.711 12.6172V7.48438H201.992ZM213.211 14.1719C213.732 14.1719 214.172 13.9766 214.531 13.5859C214.891 13.1901 215.07 12.5625 215.07 11.7031C215.07 10.8958 214.898 10.2812 214.555 9.85938C214.216 9.4375 213.76 9.22656 213.188 9.22656C212.406 9.22656 211.867 9.59375 211.57 10.3281C211.414 10.7188 211.336 11.2005 211.336 11.7734C211.336 12.2682 211.419 12.7083 211.586 13.0938C211.888 13.8125 212.43 14.1719 213.211 14.1719ZM212.656 7.28125C213.083 7.28125 213.456 7.34635 213.773 7.47656C214.315 7.70052 214.753 8.11198 215.086 8.71094V7.48438H217.25V15.5625C217.25 16.6615 217.065 17.4896 216.695 18.0469C216.06 19.0052 214.841 19.4844 213.039 19.4844C211.951 19.4844 211.062 19.2708 210.375 18.8438C209.688 18.4167 209.307 17.7786 209.234 16.9297H211.656C211.719 17.1901 211.82 17.3776 211.961 17.4922C212.201 17.6953 212.604 17.7969 213.172 17.7969C213.974 17.7969 214.51 17.5286 214.781 16.9922C214.958 16.6484 215.047 16.0703 215.047 15.2578V14.7109C214.833 15.0755 214.604 15.349 214.359 15.5312C213.917 15.8698 213.341 16.0391 212.633 16.0391C211.539 16.0391 210.664 15.6562 210.008 14.8906C209.357 14.1198 209.031 13.0781 209.031 11.7656C209.031 10.5 209.346 9.4375 209.977 8.57812C210.607 7.71354 211.5 7.28125 212.656 7.28125ZM222.992 14.1719C223.513 14.1719 223.953 13.9766 224.312 13.5859C224.672 13.1901 224.852 12.5625 224.852 11.7031C224.852 10.8958 224.68 10.2812 224.336 9.85938C223.997 9.4375 223.542 9.22656 222.969 9.22656C222.188 9.22656 221.648 9.59375 221.352 10.3281C221.195 10.7188 221.117 11.2005 221.117 11.7734C221.117 12.2682 221.201 12.7083 221.367 13.0938C221.669 13.8125 222.211 14.1719 222.992 14.1719ZM222.438 7.28125C222.865 7.28125 223.237 7.34635 223.555 7.47656C224.096 7.70052 224.534 8.11198 224.867 8.71094V7.48438H227.031V15.5625C227.031 16.6615 226.846 17.4896 226.477 18.0469C225.841 19.0052 224.622 19.4844 222.82 19.4844C221.732 19.4844 220.844 19.2708 220.156 18.8438C219.469 18.4167 219.089 17.7786 219.016 16.9297H221.438C221.5 17.1901 221.602 17.3776 221.742 17.4922C221.982 17.6953 222.385 17.7969 222.953 17.7969C223.755 17.7969 224.292 17.5286 224.562 16.9922C224.74 16.6484 224.828 16.0703 224.828 15.2578V14.7109C224.615 15.0755 224.385 15.349 224.141 15.5312C223.698 15.8698 223.122 16.0391 222.414 16.0391C221.32 16.0391 220.445 15.6562 219.789 14.8906C219.138 14.1198 218.812 13.0781 218.812 11.7656C218.812 10.5 219.128 9.4375 219.758 8.57812C220.388 7.71354 221.281 7.28125 222.438 7.28125ZM232.477 9.09375C231.961 9.09375 231.56 9.25521 231.273 9.57812C230.992 9.90104 230.815 10.3385 230.742 10.8906H234.203C234.167 10.3021 233.987 9.85677 233.664 9.55469C233.346 9.2474 232.951 9.09375 232.477 9.09375ZM232.477 7.25781C233.185 7.25781 233.823 7.39062 234.391 7.65625C234.958 7.92188 235.427 8.34115 235.797 8.91406C236.13 9.41927 236.346 10.0052 236.445 10.6719C236.503 11.0625 236.526 11.625 236.516 12.3594H230.688C230.719 13.2135 230.987 13.8125 231.492 14.1562C231.799 14.3698 232.169 14.4766 232.602 14.4766C233.06 14.4766 233.432 14.3464 233.719 14.0859C233.875 13.9453 234.013 13.75 234.133 13.5H236.406C236.349 14.0052 236.086 14.5182 235.617 15.0391C234.888 15.8672 233.867 16.2812 232.555 16.2812C231.471 16.2812 230.516 15.9323 229.688 15.2344C228.859 14.5365 228.445 13.401 228.445 11.8281C228.445 10.3542 228.818 9.22396 229.562 8.4375C230.312 7.65104 231.284 7.25781 232.477 7.25781ZM239.758 13.2812C239.805 13.6771 239.906 13.9583 240.062 14.125C240.339 14.4219 240.849 14.5703 241.594 14.5703C242.031 14.5703 242.378 14.5052 242.633 14.375C242.893 14.2448 243.023 14.0495 243.023 13.7891C243.023 13.5391 242.919 13.349 242.711 13.2188C242.503 13.0885 241.729 12.8646 240.391 12.5469C239.427 12.3073 238.747 12.0078 238.352 11.6484C237.956 11.2943 237.758 10.7839 237.758 10.1172C237.758 9.33073 238.065 8.65625 238.68 8.09375C239.299 7.52604 240.169 7.24219 241.289 7.24219C242.352 7.24219 243.216 7.45573 243.883 7.88281C244.555 8.30469 244.94 9.03646 245.039 10.0781H242.812C242.781 9.79167 242.701 9.5651 242.57 9.39844C242.326 9.09635 241.909 8.94531 241.32 8.94531C240.836 8.94531 240.49 9.02083 240.281 9.17188C240.078 9.32292 239.977 9.5 239.977 9.70312C239.977 9.95833 240.086 10.1432 240.305 10.2578C240.523 10.3776 241.297 10.5833 242.625 10.875C243.51 11.0833 244.174 11.3984 244.617 11.8203C245.055 12.2474 245.273 12.7812 245.273 13.4219C245.273 14.2656 244.958 14.9557 244.328 15.4922C243.703 16.0234 242.734 16.2891 241.422 16.2891C240.083 16.2891 239.094 16.0078 238.453 15.4453C237.818 14.8776 237.5 14.1562 237.5 13.2812H239.758ZM246.055 9.14844V7.5625H247.242V5.1875H249.445V7.5625H250.828V9.14844H249.445V13.6484C249.445 13.9974 249.49 14.2161 249.578 14.3047C249.667 14.388 249.938 14.4297 250.391 14.4297C250.458 14.4297 250.529 14.4297 250.602 14.4297C250.68 14.4245 250.755 14.4193 250.828 14.4141V16.0781L249.773 16.1172C248.721 16.1536 248.003 15.9714 247.617 15.5703C247.367 15.3151 247.242 14.9219 247.242 14.3906V9.14844H246.055ZM254.547 6.46875H252.289V4.41406H254.547V6.46875ZM252.289 7.48438H254.547V16H252.289V7.48438ZM260.531 14.4297C261.182 14.4297 261.682 14.1979 262.031 13.7344C262.38 13.2708 262.555 12.612 262.555 11.7578C262.555 10.9036 262.38 10.2474 262.031 9.78906C261.682 9.32552 261.182 9.09375 260.531 9.09375C259.88 9.09375 259.378 9.32552 259.023 9.78906C258.674 10.2474 258.5 10.9036 258.5 11.7578C258.5 12.612 258.674 13.2708 259.023 13.7344C259.378 14.1979 259.88 14.4297 260.531 14.4297ZM264.891 11.7578C264.891 13.0078 264.531 14.0781 263.812 14.9688C263.094 15.8542 262.003 16.2969 260.539 16.2969C259.076 16.2969 257.984 15.8542 257.266 14.9688C256.547 14.0781 256.188 13.0078 256.188 11.7578C256.188 10.5286 256.547 9.46354 257.266 8.5625C257.984 7.66146 259.076 7.21094 260.539 7.21094C262.003 7.21094 263.094 7.66146 263.812 8.5625C264.531 9.46354 264.891 10.5286 264.891 11.7578ZM271.211 7.28125C272.091 7.28125 272.81 7.51302 273.367 7.97656C273.93 8.4349 274.211 9.19792 274.211 10.2656V16H271.93V10.8203C271.93 10.3724 271.87 10.0286 271.75 9.78906C271.531 9.35156 271.115 9.13281 270.5 9.13281C269.745 9.13281 269.227 9.45312 268.945 10.0938C268.799 10.4323 268.727 10.8646 268.727 11.3906V16H266.508V7.5H268.656V8.74219C268.943 8.30469 269.214 7.98958 269.469 7.79688C269.927 7.45312 270.508 7.28125 271.211 7.28125ZM278.008 13.2812C278.055 13.6771 278.156 13.9583 278.312 14.125C278.589 14.4219 279.099 14.5703 279.844 14.5703C280.281 14.5703 280.628 14.5052 280.883 14.375C281.143 14.2448 281.273 14.0495 281.273 13.7891C281.273 13.5391 281.169 13.349 280.961 13.2188C280.753 13.0885 279.979 12.8646 278.641 12.5469C277.677 12.3073 276.997 12.0078 276.602 11.6484C276.206 11.2943 276.008 10.7839 276.008 10.1172C276.008 9.33073 276.315 8.65625 276.93 8.09375C277.549 7.52604 278.419 7.24219 279.539 7.24219C280.602 7.24219 281.466 7.45573 282.133 7.88281C282.805 8.30469 283.19 9.03646 283.289 10.0781H281.062C281.031 9.79167 280.951 9.5651 280.82 9.39844C280.576 9.09635 280.159 8.94531 279.57 8.94531C279.086 8.94531 278.74 9.02083 278.531 9.17188C278.328 9.32292 278.227 9.5 278.227 9.70312C278.227 9.95833 278.336 10.1432 278.555 10.2578C278.773 10.3776 279.547 10.5833 280.875 10.875C281.76 11.0833 282.424 11.3984 282.867 11.8203C283.305 12.2474 283.523 12.7812 283.523 13.4219C283.523 14.2656 283.208 14.9557 282.578 15.4922C281.953 16.0234 280.984 16.2891 279.672 16.2891C278.333 16.2891 277.344 16.0078 276.703 15.4453C276.068 14.8776 275.75 14.1562 275.75 13.2812H278.008Z" fill="#5C755E"/>
</svg>
