<svg width="23" height="23" viewBox="0 0 23 23" fill="none" xmlns="http://www.w3.org/2000/svg">
<circle cx="11.871" cy="11.7782" r="11.039" fill="white"/>
<g clip-path="url(#clip0_343_754)">
<path d="M9.93986 6.38321C9.68182 6.38321 9.4707 6.59433 9.4707 6.85237C9.4707 7.1104 9.68182 7.32152 9.93986 7.32152H10.8782C11.1362 7.32152 11.3473 7.1104 11.3473 6.85237C11.3473 6.59433 11.1362 6.38321 10.8782 6.38321H9.93986Z" fill="#5C755E"/>
<path d="M17.9162 12.0342C17.9162 11.246 17.2758 10.6056 16.4876 10.6056H15.7886C15.6924 9.83854 15.1318 9.21456 14.3975 9.02455V8.25983C14.3975 8.00179 14.1864 7.79067 13.9284 7.79067C13.6703 7.79067 13.4592 8.00179 13.4592 8.25983V9.02455C12.725 9.21456 12.1643 9.83854 12.0682 10.6056H11.3691C10.5809 10.6056 9.94054 11.246 9.94054 12.0342C9.27669 12.1468 8.76765 12.7238 8.76765 13.4205C8.76765 14.1243 9.28607 14.706 9.96166 14.8092C10.0766 15.4848 10.663 16.0009 11.3691 16.0009H13.4592V17.148C13.4592 17.4201 13.2364 17.6429 12.9643 17.6429H7.85515C7.58304 17.6429 7.36019 17.4201 7.36019 17.148V6.40901C7.36019 6.1369 7.58304 5.91405 7.85515 5.91405H12.9666C13.2364 5.91405 13.4592 6.1369 13.4592 6.40901V6.85236C13.4592 7.1104 13.6703 7.32152 13.9284 7.32152C14.1864 7.32152 14.3975 7.1104 14.3975 6.85236V6.40901C14.3975 5.61848 13.7548 4.97574 12.9643 4.97574H7.85515C7.06462 4.97574 6.42188 5.61848 6.42188 6.40901V17.1503C6.42188 17.9385 7.06462 18.5813 7.85515 18.5813H12.9666C13.7571 18.5813 14.3999 17.9385 14.3999 17.148V16.0009H16.49C17.196 16.0009 17.7825 15.4848 17.8974 14.8092C18.5707 14.706 19.0891 14.1243 19.0891 13.4205C19.0891 12.7238 18.58 12.1468 17.9162 12.0342ZM13.9284 9.90188C14.3647 9.90188 14.7283 10.2021 14.8338 10.6056H13.0229C13.1285 10.2021 13.4921 9.90188 13.9284 9.90188ZM9.70597 13.4205C9.70597 13.247 9.80214 13.0968 9.94054 13.0171V13.824C9.80214 13.7443 9.70597 13.5941 9.70597 13.4205ZM16.9779 14.5723C16.9779 14.8421 16.7574 15.0626 16.4876 15.0626H11.3691C11.0994 15.0626 10.8789 14.8421 10.8789 14.5723V12.0342C10.8789 11.7644 11.0994 11.5439 11.3691 11.5439H16.4876C16.7574 11.5439 16.9779 11.7644 16.9779 12.0342V14.5723ZM17.9162 13.824V13.0171C18.0546 13.0992 18.1508 13.247 18.1508 13.4205C18.1508 13.5941 18.0546 13.7443 17.9162 13.824Z" fill="#5C755E"/>
<path d="M14.397 13.6551H13.4587C13.2006 13.6551 12.9895 13.8662 12.9895 14.1243C12.9895 14.3823 13.2006 14.5934 13.4587 14.5934H14.397C14.655 14.5934 14.8661 14.3823 14.8661 14.1243C14.8661 13.8662 14.655 13.6551 14.397 13.6551ZM12.0512 12.2477C11.7932 12.2477 11.582 12.4588 11.582 12.7168V13.186C11.582 13.444 11.7932 13.6551 12.0512 13.6551C12.3092 13.6551 12.5203 13.444 12.5203 13.186V12.7168C12.5203 12.4588 12.3092 12.2477 12.0512 12.2477ZM15.8044 12.2477C15.5464 12.2477 15.3353 12.4588 15.3353 12.7168V13.186C15.3353 13.444 15.5464 13.6551 15.8044 13.6551C16.0625 13.6551 16.2736 13.444 16.2736 13.186V12.7168C16.2736 12.4588 16.0625 12.2477 15.8044 12.2477Z" fill="#5C755E"/>
</g>
<defs>
<clipPath id="clip0_343_754">
<rect width="15.013" height="15.013" fill="white" transform="translate(5.24805 4.272)"/>
</clipPath>
</defs>
</svg>
