<svg width="28" height="28" viewBox="0 0 28 28" fill="none" xmlns="http://www.w3.org/2000/svg">
<path d="M24.9752 12.8018L23.1006 11.07L23.0964 11.0658L16.3764 4.85401C15.7278 4.25979 14.8802 3.93018 14.0006 3.93018C13.121 3.93018 12.2733 4.25979 11.6248 4.85401L4.90478 11.0658L4.89778 11.0714L3.02598 12.8018C2.95428 12.863 2.89566 12.938 2.85365 13.0224C2.81164 13.1067 2.7871 13.1987 2.78151 13.2928C2.77591 13.3869 2.78938 13.4812 2.82109 13.5699C2.85281 13.6587 2.90212 13.7401 2.96607 13.8093C3.03003 13.8786 3.1073 13.9342 3.19327 13.9728C3.27924 14.0115 3.37212 14.0324 3.46635 14.0342C3.56059 14.0361 3.65423 14.0189 3.74167 13.9837C3.8291 13.9485 3.90853 13.8961 3.97518 13.8294L4.69618 13.1644V20.5704C4.69729 21.4983 5.0664 22.3879 5.72254 23.0441C6.37867 23.7002 7.26827 24.0693 8.19618 24.0704H19.8064C20.7343 24.0693 21.6239 23.7002 22.28 23.0441C22.9362 22.3879 23.3053 21.4983 23.3064 20.5704V13.1644L24.026 13.8294C24.0926 13.8961 24.1721 13.9485 24.2595 13.9837C24.3469 14.0189 24.4406 14.0361 24.5348 14.0342C24.629 14.0324 24.7219 14.0115 24.8079 13.9728C24.8939 13.9342 24.9711 13.8786 25.0351 13.8093C25.099 13.7401 25.1484 13.6587 25.1801 13.5699C25.2118 13.4812 25.2253 13.3869 25.2197 13.2928C25.2141 13.1987 25.1895 13.1067 25.1475 13.0224C25.1055 12.938 25.0469 12.863 24.9752 12.8018ZM21.905 20.569C21.9042 21.1257 21.6828 21.6595 21.2891 22.0531C20.8954 22.4468 20.3617 22.6683 19.805 22.669H8.19478C7.63806 22.6683 7.10434 22.4468 6.71068 22.0531C6.31701 21.6595 6.09552 21.1257 6.09478 20.569V11.8722L12.5768 5.88441C12.966 5.52828 13.4744 5.33077 14.002 5.33077C14.5295 5.33077 15.038 5.52828 15.4272 5.88441L21.905 11.8708V20.569ZM18.419 14.1304C18.4924 14.1879 18.5536 14.2595 18.599 14.341C18.6444 14.4224 18.673 14.5122 18.6832 14.6049C18.6935 14.6976 18.6851 14.7914 18.6585 14.8808C18.632 14.9702 18.5878 15.0534 18.5287 15.1255C18.4696 15.1976 18.3966 15.2572 18.3141 15.3007C18.2316 15.3442 18.1413 15.3708 18.0484 15.3789C17.9555 15.387 17.8619 15.3765 17.7731 15.348C17.6843 15.3194 17.6021 15.2734 17.5314 15.2126C16.5222 14.4254 15.279 13.9979 13.9992 13.9979C12.7193 13.9979 11.4761 14.4254 10.467 15.2126C10.3965 15.2755 10.3141 15.3234 10.2246 15.3536C10.1352 15.3837 10.0405 15.3955 9.94638 15.3881C9.85226 15.3807 9.7606 15.3544 9.67691 15.3107C9.59323 15.267 9.51925 15.2068 9.45944 15.1337C9.39962 15.0607 9.3552 14.9763 9.32885 14.8856C9.30249 14.795 9.29475 14.6999 9.30609 14.6062C9.31742 14.5125 9.3476 14.422 9.39481 14.3402C9.44202 14.2585 9.50528 14.1871 9.58078 14.1304C10.8426 13.1445 12.3979 12.609 13.9992 12.609C15.6005 12.609 17.1558 13.1445 18.4176 14.1304H18.419ZM16.6606 16.3186C16.803 16.4378 16.8922 16.6087 16.9086 16.7936C16.925 16.9786 16.8673 17.1625 16.7481 17.3049C16.6289 17.4473 16.458 17.5365 16.2731 17.5529C16.0881 17.5693 15.9042 17.5116 15.7618 17.3924C15.2629 16.9889 14.6408 16.7688 13.9992 16.7688C13.3576 16.7688 12.7354 16.9889 12.2366 17.3924C12.1661 17.4514 12.0846 17.496 11.9969 17.5235C11.9092 17.5511 11.8169 17.5611 11.7253 17.5529C11.6337 17.5448 11.5446 17.5187 11.4631 17.4762C11.3816 17.4336 11.3093 17.3754 11.2503 17.3049C11.1913 17.2344 11.1467 17.153 11.1192 17.0652C11.0916 16.9775 11.0816 16.8852 11.0898 16.7936C11.0979 16.7021 11.124 16.613 11.1665 16.5315C11.2091 16.45 11.2673 16.3776 11.3378 16.3186C12.0941 15.7164 13.0324 15.3885 13.9992 15.3885C14.966 15.3885 15.9042 15.7164 16.6606 16.3186ZM14.8616 19.0136C14.8616 19.1842 14.811 19.3509 14.7162 19.4927C14.6215 19.6346 14.4868 19.7451 14.3292 19.8104C14.1716 19.8756 13.9982 19.8927 13.8309 19.8594C13.6636 19.8262 13.51 19.744 13.3894 19.6234C13.2688 19.5028 13.1866 19.3491 13.1534 19.1819C13.1201 19.0146 13.1372 18.8412 13.2024 18.6836C13.2677 18.526 13.3782 18.3913 13.5201 18.2966C13.6619 18.2018 13.8286 18.1512 13.9992 18.1512C14.2279 18.1512 14.4473 18.2421 14.609 18.4038C14.7707 18.5655 14.8616 18.7849 14.8616 19.0136Z" fill="white"/>
</svg>
