<svg width="28" height="28" viewBox="0 0 28 28" fill="none" xmlns="http://www.w3.org/2000/svg">
<path d="M0 4.6665H28V23.3334H0V4.6665Z" fill="#F0F0F0"/>
<path d="M0 6.99951H28V9.33264H0V6.99951ZM0 11.6664H28V13.9995H0V11.6664ZM0 16.3326H28V18.6658H0V16.3326ZM0 20.9995H28V23.3326H0V20.9995Z" fill="#D80027"/>
<path d="M0 4.6665H14V14.7179H0V4.6665Z" fill="#2E52B2"/>
<path d="M5.45896 8.78403L5.23348 9.47768H4.50417L5.0943 9.90616L4.86883 10.5998L5.45896 10.1713L6.04871 10.5998L5.82329 9.90616L6.41342 9.47768H5.68405L5.45896 8.78403ZM5.68405 11.9808L5.45896 11.2872L5.23348 11.9808H4.50417L5.0943 12.4094L4.86883 13.103L5.45896 12.6744L6.04871 13.103L5.82329 12.4094L6.41342 11.9808H5.68405ZM2.60181 11.9808L2.37666 11.2872L2.15119 11.9808H1.42188L2.01201 12.4094L1.78653 13.103L2.37666 12.6744L2.96647 13.103L2.74105 12.4094L3.33107 11.9808H2.60181ZM2.37666 8.78403L2.15119 9.47768H1.42188L2.01201 9.90616L1.78653 10.5998L2.37666 10.1713L2.96647 10.5998L2.74105 9.90616L3.33107 9.47768H2.60181L2.37666 8.78403ZM5.45896 6.28076L5.23348 6.97447H4.50417L5.0943 7.403L4.86883 8.09661L5.45896 7.66807L6.04871 8.09661L5.82329 7.403L6.41342 6.97447H5.68405L5.45896 6.28076ZM2.37666 6.28076L2.15119 6.97447H1.42188L2.01201 7.403L1.78653 8.09661L2.37666 7.66807L2.96647 8.09661L2.74105 7.403L3.33107 6.97447H2.60181L2.37666 6.28076ZM8.5412 8.78403L8.31578 9.47768H7.58647L8.17655 9.90616L7.95118 10.5998L8.5412 10.1713L9.13106 10.5998L8.90559 9.90616L9.49572 9.47768H8.76641L8.5412 8.78403ZM8.76641 11.9808L8.5412 11.2872L8.31578 11.9808H7.58647L8.17655 12.4094L7.95118 13.103L8.5412 12.6744L9.13106 13.103L8.90559 12.4094L9.49572 11.9808H8.76641ZM11.8487 11.9808L11.6236 11.2872L11.3981 11.9808H10.6688L11.2588 12.4094L11.0334 13.103L11.6236 12.6744L12.2134 13.103L11.9879 12.4094L12.578 11.9808H11.8487ZM11.6236 8.78403L11.3981 9.47768H10.6688L11.2588 9.90616L11.0334 10.5998L11.6236 10.1713L12.2134 10.5998L11.9879 9.90616L12.578 9.47768H11.8487L11.6236 8.78403ZM8.5412 6.28076L8.31578 6.97447H7.58647L8.17655 7.403L7.95118 8.09661L8.5412 7.66807L9.13106 8.09661L8.90559 7.403L9.49572 6.97447H8.76641L8.5412 6.28076ZM11.6236 6.28076L11.3981 6.97447H10.6688L11.2588 7.403L11.0334 8.09661L11.6236 7.66807L12.2134 8.09661L11.9879 7.403L12.578 6.97447H11.8487L11.6236 6.28076Z" fill="#F0F0F0"/>
</svg>
