<svg width="267" height="22" viewBox="0 0 267 22" fill="none" xmlns="http://www.w3.org/2000/svg">
<path d="M253.725 6.44831L258.276 11L253.725 15.5518" stroke="#5C755E" stroke-width="2" stroke-miterlimit="10" stroke-linecap="round" stroke-linejoin="round"/>
<path d="M0.367676 4.48438H2.93799L5.43799 13.2266L7.96143 4.48438H10.4614L6.53174 16H4.2583L0.367676 4.48438ZM13.7192 7.48438V16H11.4614V7.48438H13.7192ZM13.7192 4.41406V6.46875H11.4614V4.41406H13.7192ZM23.1724 13.5C23.1151 14.0052 22.8521 14.5182 22.3833 15.0391C21.6541 15.8672 20.6333 16.2812 19.3208 16.2812C18.2375 16.2812 17.2817 15.9323 16.4536 15.2344C15.6255 14.5365 15.2114 13.401 15.2114 11.8281C15.2114 10.3542 15.5838 9.22396 16.3286 8.4375C17.0786 7.65104 18.05 7.25781 19.2427 7.25781C19.951 7.25781 20.589 7.39062 21.1567 7.65625C21.7244 7.92188 22.1932 8.34115 22.563 8.91406C22.8963 9.41927 23.1125 10.0052 23.2114 10.6719C23.2687 11.0625 23.2922 11.625 23.2817 12.3594H17.4536C17.4849 13.2135 17.7531 13.8125 18.2583 14.1562C18.5656 14.3698 18.9354 14.4766 19.3677 14.4766C19.826 14.4766 20.1984 14.3464 20.4849 14.0859C20.6411 13.9453 20.7791 13.75 20.8989 13.5H23.1724ZM20.9692 10.8906C20.9328 10.3021 20.7531 9.85677 20.4302 9.55469C20.1125 9.2474 19.7166 9.09375 19.2427 9.09375C18.7271 9.09375 18.326 9.25521 18.0396 9.57812C17.7583 9.90104 17.5812 10.3385 17.5083 10.8906H20.9692ZM31.2505 16L29.9146 9.79688L28.563 16H26.2505L23.8599 7.48438H26.2505L27.5786 13.5938L28.8052 7.48438H31.063L32.3599 13.6172L33.688 7.48438H36.0083L33.5396 16H31.2505ZM46.0552 14.3359C46.6229 14.3359 47.0838 14.2734 47.438 14.1484C48.1099 13.9089 48.4458 13.4635 48.4458 12.8125C48.4458 12.4323 48.2791 12.138 47.9458 11.9297C47.6125 11.7266 47.089 11.5469 46.3755 11.3906L45.1567 11.1172C43.9588 10.8464 43.1307 10.5521 42.6724 10.2344C41.8963 9.70312 41.5083 8.8724 41.5083 7.74219C41.5083 6.71094 41.8833 5.85417 42.6333 5.17188C43.3833 4.48958 44.4849 4.14844 45.938 4.14844C47.1515 4.14844 48.1854 4.47135 49.0396 5.11719C49.8989 5.75781 50.3494 6.6901 50.3911 7.91406H48.0786C48.0369 7.22135 47.7349 6.72917 47.1724 6.4375C46.7974 6.24479 46.3312 6.14844 45.7739 6.14844C45.1541 6.14844 44.6593 6.27344 44.2896 6.52344C43.9198 6.77344 43.7349 7.1224 43.7349 7.57031C43.7349 7.98177 43.9172 8.28906 44.2817 8.49219C44.5161 8.6276 45.0161 8.78646 45.7817 8.96875L47.7661 9.44531C48.6359 9.65365 49.2922 9.93229 49.7349 10.2812C50.4224 10.8229 50.7661 11.6068 50.7661 12.6328C50.7661 13.6849 50.3625 14.5599 49.5552 15.2578C48.7531 15.9505 47.6177 16.2969 46.1489 16.2969C44.6489 16.2969 43.4692 15.9557 42.6099 15.2734C41.7505 14.5859 41.3208 13.6432 41.3208 12.4453H43.6177C43.6906 12.9714 43.8338 13.3646 44.0474 13.625C44.438 14.099 45.1073 14.3359 46.0552 14.3359ZM59.6567 13.5C59.5994 14.0052 59.3364 14.5182 58.8677 15.0391C58.1385 15.8672 57.1177 16.2812 55.8052 16.2812C54.7218 16.2812 53.7661 15.9323 52.938 15.2344C52.1099 14.5365 51.6958 13.401 51.6958 11.8281C51.6958 10.3542 52.0682 9.22396 52.813 8.4375C53.563 7.65104 54.5343 7.25781 55.7271 7.25781C56.4354 7.25781 57.0734 7.39062 57.6411 7.65625C58.2088 7.92188 58.6776 8.34115 59.0474 8.91406C59.3807 9.41927 59.5968 10.0052 59.6958 10.6719C59.7531 11.0625 59.7765 11.625 59.7661 12.3594H53.938C53.9692 13.2135 54.2375 13.8125 54.7427 14.1562C55.05 14.3698 55.4198 14.4766 55.8521 14.4766C56.3104 14.4766 56.6828 14.3464 56.9692 14.0859C57.1255 13.9453 57.2635 13.75 57.3833 13.5H59.6567ZM57.4536 10.8906C57.4172 10.3021 57.2375 9.85677 56.9146 9.55469C56.5968 9.2474 56.201 9.09375 55.7271 9.09375C55.2114 9.09375 54.8104 9.25521 54.5239 9.57812C54.2427 9.90104 54.0656 10.3385 53.9927 10.8906H57.4536ZM68.6411 10.5391H66.3599C66.3182 10.2214 66.2114 9.9349 66.0396 9.67969C65.7896 9.33594 65.4015 9.16406 64.8755 9.16406C64.1255 9.16406 63.6125 9.53646 63.3364 10.2812C63.1906 10.6771 63.1177 11.2031 63.1177 11.8594C63.1177 12.4844 63.1906 12.987 63.3364 13.3672C63.6021 14.0755 64.1021 14.4297 64.8364 14.4297C65.3573 14.4297 65.7271 14.2891 65.9458 14.0078C66.1646 13.7266 66.2974 13.362 66.3442 12.9141H68.6177C68.5656 13.5911 68.3208 14.2318 67.8833 14.8359C67.1854 15.8099 66.1515 16.2969 64.7817 16.2969C63.4119 16.2969 62.4041 15.8906 61.7583 15.0781C61.1125 14.2656 60.7896 13.2109 60.7896 11.9141C60.7896 10.4505 61.1463 9.3125 61.8599 8.5C62.5734 7.6875 63.5578 7.28125 64.813 7.28125C65.8807 7.28125 66.7531 7.52083 67.4302 8C68.1125 8.47917 68.5161 9.32552 68.6411 10.5391ZM75.6411 14.7969C75.6203 14.8229 75.5682 14.901 75.4849 15.0312C75.4015 15.1615 75.3026 15.276 75.188 15.375C74.839 15.6875 74.5005 15.901 74.1724 16.0156C73.8494 16.1302 73.4692 16.1875 73.0317 16.1875C71.7713 16.1875 70.9224 15.7344 70.4849 14.8281C70.2401 14.3281 70.1177 13.5911 70.1177 12.6172V7.48438H72.3989V12.6172C72.3989 13.1016 72.4562 13.4661 72.5708 13.7109C72.7739 14.1432 73.1724 14.3594 73.7661 14.3594C74.5265 14.3594 75.0474 14.0521 75.3286 13.4375C75.4744 13.1042 75.5474 12.6641 75.5474 12.1172V7.48438H77.8052V16H75.6411V14.7969ZM84.2427 9.53906C83.3468 9.53906 82.7453 9.83073 82.438 10.4141C82.2661 10.7422 82.1802 11.2474 82.1802 11.9297V16H79.938V7.48438H82.063V8.96875C82.4067 8.40104 82.7062 8.01302 82.9614 7.80469C83.3781 7.45573 83.9198 7.28125 84.5864 7.28125C84.6281 7.28125 84.6619 7.28385 84.688 7.28906C84.7192 7.28906 84.7843 7.29167 84.8833 7.29688V9.57812C84.7427 9.5625 84.6177 9.55208 84.5083 9.54688C84.3989 9.54167 84.3104 9.53906 84.2427 9.53906ZM88.4849 7.48438V16H86.2271V7.48438H88.4849ZM88.4849 4.41406V6.46875H86.2271V4.41406H88.4849ZM94.5474 14.4141V16.0781L93.4927 16.1172C92.4406 16.1536 91.7218 15.9714 91.3364 15.5703C91.0864 15.3151 90.9614 14.9219 90.9614 14.3906V9.14844H89.7739V7.5625H90.9614V5.1875H93.1646V7.5625H94.5474V9.14844H93.1646V13.6484C93.1646 13.9974 93.2088 14.2161 93.2974 14.3047C93.3859 14.388 93.6567 14.4297 94.1099 14.4297C94.1776 14.4297 94.2479 14.4297 94.3208 14.4297C94.3989 14.4245 94.4744 14.4193 94.5474 14.4141ZM99.438 13.7656L101.196 7.48438H103.563L100.641 15.8594C100.079 17.474 99.6333 18.474 99.3052 18.8594C98.9771 19.25 98.3208 19.4453 97.3364 19.4453C97.1385 19.4453 96.9797 19.4427 96.8599 19.4375C96.7401 19.4375 96.5604 19.4297 96.3208 19.4141V17.6328L96.6021 17.6484C96.8208 17.6589 97.0291 17.651 97.2271 17.625C97.425 17.599 97.5916 17.5391 97.7271 17.4453C97.8573 17.3568 97.9771 17.1719 98.0864 16.8906C98.201 16.6094 98.2479 16.4375 98.2271 16.375L95.1021 7.48438H97.5786L99.438 13.7656ZM112.883 16.2812C111.717 16.2812 110.805 15.9375 110.149 15.25C109.493 14.5625 109.165 13.7995 109.165 12.9609C109.165 12.2682 109.336 11.6745 109.68 11.1797C110.024 10.6849 110.586 10.1953 111.368 9.71094L111.61 9.5625C111.277 9.1875 111.019 8.80469 110.836 8.41406C110.654 8.02344 110.563 7.61719 110.563 7.19531C110.563 6.35677 110.844 5.70312 111.407 5.23438C111.969 4.76042 112.698 4.52344 113.594 4.52344C114.412 4.52344 115.086 4.76562 115.618 5.25C116.154 5.72917 116.422 6.34375 116.422 7.09375C116.422 7.77083 116.261 8.32031 115.938 8.74219C115.62 9.16406 115.152 9.55469 114.532 9.91406L116.165 11.9297C116.352 11.6589 116.495 11.3646 116.594 11.0469C116.698 10.7292 116.753 10.3932 116.758 10.0391H118.735C118.704 10.737 118.537 11.4427 118.235 12.1562C118.068 12.5573 117.797 13 117.422 13.4844L119.516 16H116.813L116.016 15.0234C115.631 15.3828 115.271 15.6484 114.938 15.8203C114.344 16.1276 113.659 16.2812 112.883 16.2812ZM112.758 10.9844C112.201 11.3542 111.831 11.6797 111.649 11.9609C111.472 12.2422 111.383 12.5521 111.383 12.8906C111.383 13.2708 111.537 13.6198 111.844 13.9375C112.157 14.2552 112.555 14.4141 113.04 14.4141C113.404 14.4141 113.748 14.3307 114.071 14.1641C114.399 13.9922 114.665 13.8021 114.868 13.5938L112.758 10.9844ZM112.61 7.11719C112.61 7.32552 112.683 7.54427 112.829 7.77344C112.922 7.92448 113.125 8.19271 113.438 8.57812C113.75 8.35938 113.974 8.17448 114.11 8.02344C114.37 7.74219 114.5 7.4375 114.5 7.10938C114.5 6.86979 114.422 6.65625 114.266 6.46875C114.11 6.28125 113.873 6.1875 113.555 6.1875C113.357 6.1875 113.172 6.24219 113 6.35156C112.74 6.51302 112.61 6.76823 112.61 7.11719ZM129.711 14.3359C130.279 14.3359 130.74 14.2734 131.094 14.1484C131.766 13.9089 132.102 13.4635 132.102 12.8125C132.102 12.4323 131.935 12.138 131.602 11.9297C131.269 11.7266 130.745 11.5469 130.032 11.3906L128.813 11.1172C127.615 10.8464 126.787 10.5521 126.329 10.2344C125.553 9.70312 125.165 8.8724 125.165 7.74219C125.165 6.71094 125.54 5.85417 126.29 5.17188C127.04 4.48958 128.141 4.14844 129.594 4.14844C130.808 4.14844 131.842 4.47135 132.696 5.11719C133.555 5.75781 134.006 6.6901 134.047 7.91406H131.735C131.693 7.22135 131.391 6.72917 130.829 6.4375C130.454 6.24479 129.987 6.14844 129.43 6.14844C128.81 6.14844 128.316 6.27344 127.946 6.52344C127.576 6.77344 127.391 7.1224 127.391 7.57031C127.391 7.98177 127.573 8.28906 127.938 8.49219C128.172 8.6276 128.672 8.78646 129.438 8.96875L131.422 9.44531C132.292 9.65365 132.948 9.93229 133.391 10.2812C134.079 10.8229 134.422 11.6068 134.422 12.6328C134.422 13.6849 134.019 14.5599 133.211 15.2578C132.409 15.9505 131.274 16.2969 129.805 16.2969C128.305 16.2969 127.125 15.9557 126.266 15.2734C125.407 14.5859 124.977 13.6432 124.977 12.4453H127.274C127.347 12.9714 127.49 13.3646 127.704 13.625C128.094 14.099 128.764 14.3359 129.711 14.3359ZM136.344 8.40625C136.933 7.65625 137.943 7.28125 139.375 7.28125C140.308 7.28125 141.136 7.46615 141.86 7.83594C142.584 8.20573 142.946 8.90365 142.946 9.92969V13.8359C142.946 14.1068 142.951 14.4349 142.961 14.8203C142.977 15.112 143.021 15.3099 143.094 15.4141C143.167 15.5182 143.277 15.6042 143.422 15.6719V16H141C140.933 15.8281 140.886 15.6667 140.86 15.5156C140.834 15.3646 140.813 15.1927 140.797 15C140.49 15.3333 140.136 15.6172 139.735 15.8516C139.256 16.1276 138.714 16.2656 138.11 16.2656C137.339 16.2656 136.701 16.0469 136.196 15.6094C135.696 15.1667 135.446 14.5417 135.446 13.7344C135.446 12.6875 135.849 11.9297 136.657 11.4609C137.099 11.2057 137.75 11.0234 138.61 10.9141L139.368 10.8203C139.779 10.7682 140.073 10.7031 140.25 10.625C140.568 10.4896 140.727 10.2786 140.727 9.99219C140.727 9.64323 140.605 9.40365 140.36 9.27344C140.12 9.13802 139.766 9.07031 139.297 9.07031C138.771 9.07031 138.399 9.20052 138.18 9.46094C138.024 9.65365 137.92 9.91406 137.868 10.2422H135.719C135.766 9.4974 135.974 8.88542 136.344 8.40625ZM138 14.3906C138.209 14.5625 138.464 14.6484 138.766 14.6484C139.245 14.6484 139.685 14.5078 140.086 14.2266C140.493 13.9453 140.704 13.4323 140.719 12.6875V11.8594C140.579 11.9479 140.435 12.0208 140.29 12.0781C140.149 12.1302 139.954 12.1797 139.704 12.2266L139.204 12.3203C138.735 12.4036 138.399 12.5052 138.196 12.625C137.852 12.8281 137.68 13.1432 137.68 13.5703C137.68 13.9505 137.787 14.224 138 14.3906ZM148.922 4.41406V6.22656C148.797 6.21094 148.586 6.20052 148.29 6.19531C147.998 6.1849 147.795 6.25 147.68 6.39062C147.571 6.52604 147.516 6.67708 147.516 6.84375V7.5625H148.977V9.13281H147.516V16H145.297V9.13281H144.055V7.5625H145.274V7.01562C145.274 6.10417 145.428 5.47656 145.735 5.13281C146.058 4.6224 146.836 4.36719 148.071 4.36719C148.211 4.36719 148.339 4.3724 148.454 4.38281C148.568 4.38802 148.724 4.39844 148.922 4.41406ZM157.547 13.5C157.49 14.0052 157.227 14.5182 156.758 15.0391C156.029 15.8672 155.008 16.2812 153.696 16.2812C152.612 16.2812 151.657 15.9323 150.829 15.2344C150 14.5365 149.586 13.401 149.586 11.8281C149.586 10.3542 149.959 9.22396 150.704 8.4375C151.454 7.65104 152.425 7.25781 153.618 7.25781C154.326 7.25781 154.964 7.39062 155.532 7.65625C156.099 7.92188 156.568 8.34115 156.938 8.91406C157.271 9.41927 157.487 10.0052 157.586 10.6719C157.644 11.0625 157.667 11.625 157.657 12.3594H151.829C151.86 13.2135 152.128 13.8125 152.633 14.1562C152.941 14.3698 153.31 14.4766 153.743 14.4766C154.201 14.4766 154.573 14.3464 154.86 14.0859C155.016 13.9453 155.154 13.75 155.274 13.5H157.547ZM155.344 10.8906C155.308 10.3021 155.128 9.85677 154.805 9.55469C154.487 9.2474 154.092 9.09375 153.618 9.09375C153.102 9.09375 152.701 9.25521 152.415 9.57812C152.133 9.90104 151.956 10.3385 151.883 10.8906H155.344ZM163.063 14.4141V16.0781L162.008 16.1172C160.956 16.1536 160.237 15.9714 159.852 15.5703C159.602 15.3151 159.477 14.9219 159.477 14.3906V9.14844H158.29V7.5625H159.477V5.1875H161.68V7.5625H163.063V9.14844H161.68V13.6484C161.68 13.9974 161.724 14.2161 161.813 14.3047C161.902 14.388 162.172 14.4297 162.625 14.4297C162.693 14.4297 162.764 14.4297 162.836 14.4297C162.915 14.4245 162.99 14.4193 163.063 14.4141ZM167.954 13.7656L169.711 7.48438H172.079L169.157 15.8594C168.594 17.474 168.149 18.474 167.821 18.8594C167.493 19.25 166.836 19.4453 165.852 19.4453C165.654 19.4453 165.495 19.4427 165.375 19.4375C165.256 19.4375 165.076 19.4297 164.836 19.4141V17.6328L165.118 17.6484C165.336 17.6589 165.545 17.651 165.743 17.625C165.941 17.599 166.107 17.5391 166.243 17.4453C166.373 17.3568 166.493 17.1719 166.602 16.8906C166.717 16.6094 166.764 16.4375 166.743 16.375L163.618 7.48438H166.094L167.954 13.7656ZM177.844 4.48438H180.235V16H177.844V4.48438ZM186.313 9.13281C185.558 9.13281 185.04 9.45312 184.758 10.0938C184.612 10.4323 184.54 10.8646 184.54 11.3906V16H182.321V7.5H184.469V8.74219C184.756 8.30469 185.027 7.98958 185.282 7.79688C185.74 7.45312 186.321 7.28125 187.024 7.28125C187.904 7.28125 188.623 7.51302 189.18 7.97656C189.743 8.4349 190.024 9.19792 190.024 10.2656V16H187.743V10.8203C187.743 10.3724 187.683 10.0286 187.563 9.78906C187.344 9.35156 186.928 9.13281 186.313 9.13281ZM197.954 7.875C198.62 8.30208 199.003 9.03646 199.102 10.0781H196.875C196.844 9.79167 196.764 9.5651 196.633 9.39844C196.389 9.09635 195.972 8.94531 195.383 8.94531C194.899 8.94531 194.553 9.02083 194.344 9.17188C194.141 9.32292 194.04 9.5 194.04 9.70312C194.04 9.95833 194.149 10.1432 194.368 10.2578C194.586 10.3776 195.36 10.5833 196.688 10.875C197.573 11.0833 198.237 11.3984 198.68 11.8203C199.118 12.2474 199.336 12.7812 199.336 13.4219C199.336 14.2656 199.021 14.9557 198.391 15.4922C197.766 16.0234 196.797 16.2891 195.485 16.2891C194.146 16.2891 193.157 16.0078 192.516 15.4453C191.881 14.8776 191.563 14.1562 191.563 13.2812H193.821C193.868 13.6771 193.969 13.9583 194.125 14.125C194.402 14.4219 194.912 14.5703 195.657 14.5703C196.094 14.5703 196.441 14.5052 196.696 14.375C196.956 14.2448 197.086 14.0495 197.086 13.7891C197.086 13.5391 196.982 13.349 196.774 13.2188C196.566 13.0885 195.792 12.8646 194.454 12.5469C193.49 12.3073 192.81 12.0078 192.415 11.6484C192.019 11.2943 191.821 10.7839 191.821 10.1172C191.821 9.33073 192.128 8.65625 192.743 8.09375C193.362 7.52604 194.232 7.24219 195.352 7.24219C196.415 7.24219 197.282 7.45312 197.954 7.875ZM203.282 7.48438V16H201.024V7.48438H203.282ZM203.282 4.41406V6.46875H201.024V4.41406H203.282ZM207.852 17.4922C208.092 17.6953 208.495 17.7969 209.063 17.7969C209.865 17.7969 210.402 17.5286 210.672 16.9922C210.849 16.6484 210.938 16.0703 210.938 15.2578V14.7109C210.724 15.0755 210.495 15.349 210.25 15.5312C209.808 15.8698 209.232 16.0391 208.524 16.0391C207.43 16.0391 206.555 15.6562 205.899 14.8906C205.248 14.1198 204.922 13.0781 204.922 11.7656C204.922 10.5 205.237 9.4375 205.868 8.57812C206.498 7.71354 207.391 7.28125 208.547 7.28125C208.974 7.28125 209.347 7.34635 209.665 7.47656C210.206 7.70052 210.644 8.11198 210.977 8.71094V7.48438H213.141V15.5625C213.141 16.6615 212.956 17.4896 212.586 18.0469C211.951 19.0052 210.732 19.4844 208.93 19.4844C207.842 19.4844 206.954 19.2708 206.266 18.8438C205.579 18.4167 205.198 17.7786 205.125 16.9297H207.547C207.61 17.1901 207.711 17.3776 207.852 17.4922ZM207.477 13.0938C207.779 13.8125 208.321 14.1719 209.102 14.1719C209.623 14.1719 210.063 13.9766 210.422 13.5859C210.782 13.1901 210.961 12.5625 210.961 11.7031C210.961 10.8958 210.79 10.2812 210.446 9.85938C210.107 9.4375 209.652 9.22656 209.079 9.22656C208.297 9.22656 207.758 9.59375 207.461 10.3281C207.305 10.7188 207.227 11.2005 207.227 11.7734C207.227 12.2682 207.31 12.7083 207.477 13.0938ZM222.922 11V16H220.649V10.8203C220.649 10.362 220.571 9.99219 220.415 9.71094C220.211 9.3151 219.826 9.11719 219.258 9.11719C218.67 9.11719 218.222 9.3151 217.915 9.71094C217.612 10.1016 217.461 10.6615 217.461 11.3906V16H215.243V4.52344H217.461V8.59375C217.784 8.09896 218.157 7.75521 218.579 7.5625C219.006 7.36458 219.454 7.26562 219.922 7.26562C220.448 7.26562 220.925 7.35677 221.352 7.53906C221.784 7.72135 222.139 8 222.415 8.375C222.649 8.69271 222.792 9.02083 222.844 9.35938C222.896 9.69271 222.922 10.2396 222.922 11ZM228.907 14.4141V16.0781L227.852 16.1172C226.8 16.1536 226.081 15.9714 225.696 15.5703C225.446 15.3151 225.321 14.9219 225.321 14.3906V9.14844H224.133V7.5625H225.321V5.1875H227.524V7.5625H228.907V9.14844H227.524V13.6484C227.524 13.9974 227.568 14.2161 227.657 14.3047C227.745 14.388 228.016 14.4297 228.469 14.4297C228.537 14.4297 228.607 14.4297 228.68 14.4297C228.758 14.4245 228.834 14.4193 228.907 14.4141ZM236.204 7.875C236.87 8.30208 237.253 9.03646 237.352 10.0781H235.125C235.094 9.79167 235.014 9.5651 234.883 9.39844C234.639 9.09635 234.222 8.94531 233.633 8.94531C233.149 8.94531 232.803 9.02083 232.594 9.17188C232.391 9.32292 232.29 9.5 232.29 9.70312C232.29 9.95833 232.399 10.1432 232.618 10.2578C232.836 10.3776 233.61 10.5833 234.938 10.875C235.823 11.0833 236.487 11.3984 236.93 11.8203C237.368 12.2474 237.586 12.7812 237.586 13.4219C237.586 14.2656 237.271 14.9557 236.641 15.4922C236.016 16.0234 235.047 16.2891 233.735 16.2891C232.396 16.2891 231.407 16.0078 230.766 15.4453C230.131 14.8776 229.813 14.1562 229.813 13.2812H232.071C232.118 13.6771 232.219 13.9583 232.375 14.125C232.652 14.4219 233.162 14.5703 233.907 14.5703C234.344 14.5703 234.691 14.5052 234.946 14.375C235.206 14.2448 235.336 14.0495 235.336 13.7891C235.336 13.5391 235.232 13.349 235.024 13.2188C234.816 13.0885 234.042 12.8646 232.704 12.5469C231.74 12.3073 231.06 12.0078 230.665 11.6484C230.269 11.2943 230.071 10.7839 230.071 10.1172C230.071 9.33073 230.378 8.65625 230.993 8.09375C231.612 7.52604 232.482 7.24219 233.602 7.24219C234.665 7.24219 235.532 7.45312 236.204 7.875Z" fill="#5C755E"/>
</svg>
