<svg width="58" height="58" viewBox="0 0 58 58" fill="none" xmlns="http://www.w3.org/2000/svg">
<circle cx="28.9995" cy="29" r="29" fill="white"/>
<g clip-path="url(#clip0_54654_77)">
<path d="M43.0795 34.7334L32.8528 17.7734C32.4393 17.1265 31.8695 16.5941 31.1961 16.2253C30.5227 15.8565 29.7673 15.6632 28.9995 15.6632C28.2317 15.6632 27.4763 15.8565 26.8028 16.2253C26.1294 16.5941 25.5597 17.1265 25.1461 17.7734L14.9195 34.7334C14.5582 35.3356 14.3619 36.0223 14.3502 36.7244C14.3385 37.4266 14.5118 38.1195 14.8528 38.7334C15.2471 39.4244 15.8177 39.9984 16.5064 40.3966C17.1951 40.7948 17.9772 41.0031 18.7728 41H39.2261C40.0165 41.0085 40.7951 40.8083 41.4833 40.4197C42.1716 40.0311 42.7451 39.4678 43.1461 38.7867C43.4972 38.1664 43.6761 37.4636 43.6643 36.751C43.6526 36.0383 43.4507 35.3418 43.0795 34.7334ZM40.8128 37.4667C40.6526 37.7422 40.42 37.9685 40.1403 38.1213C39.8607 38.2741 39.5445 38.3474 39.2261 38.3334H18.7728C18.4544 38.3474 18.1383 38.2741 17.8586 38.1213C17.5789 37.9685 17.3464 37.7422 17.1861 37.4667C17.0691 37.264 17.0075 37.0341 17.0075 36.8C17.0075 36.566 17.0691 36.3361 17.1861 36.1334L27.4261 19.16C27.6102 18.917 27.848 18.7199 28.1209 18.5841C28.3939 18.4484 28.6946 18.3778 28.9995 18.3778C29.3043 18.3778 29.605 18.4484 29.878 18.5841C30.151 18.7199 30.3888 18.917 30.5728 19.16L40.7995 36.12C40.921 36.3231 40.9863 36.5549 40.9887 36.7916C40.991 37.0282 40.9303 37.2613 40.8128 37.4667Z" fill="#5C755E"/>
<path d="M28.9993 35.6667C29.7357 35.6667 30.3327 35.0697 30.3327 34.3333C30.3327 33.597 29.7357 33 28.9993 33C28.263 33 27.666 33.597 27.666 34.3333C27.666 35.0697 28.263 35.6667 28.9993 35.6667Z" fill="#5C755E"/>
<path d="M28.9993 23.6666C28.6457 23.6666 28.3066 23.8071 28.0565 24.0572C27.8065 24.3072 27.666 24.6463 27.666 25V30.3333C27.666 30.6869 27.8065 31.0261 28.0565 31.2761C28.3066 31.5262 28.6457 31.6666 28.9993 31.6666C29.353 31.6666 29.6921 31.5262 29.9422 31.2761C30.1922 31.0261 30.3327 30.6869 30.3327 30.3333V25C30.3327 24.6463 30.1922 24.3072 29.9422 24.0572C29.6921 23.8071 29.353 23.6666 28.9993 23.6666Z" fill="#5C755E"/>
</g>
<defs>
<clipPath id="clip0_54654_77">
<rect width="32" height="32" fill="white" transform="translate(12.9995 13)"/>
</clipPath>
</defs>
</svg>
